<?xml version="1.0" encoding="utf-8"?>
<!-- Generator: Adobe Illustrator 19.1.0, SVG Export Plug-In . SVG Version: 6.00 Build 0)  -->
<svg version="1.1" id="Layer_1" xmlns="http://www.w3.org/2000/svg" xmlns:xlink="http://www.w3.org/1999/xlink" x="0px" y="0px"
	 width="39px" height="25px" viewBox="-278 408.89 39 25" enable-background="new -278 408.89 39 25" xml:space="preserve">
<rect id="XMLID_5_" x="-278" y="415.14" fill="#D21034" width="39" height="12.5"/>
<rect id="XMLID_1_" x="-278" y="415.14" fill="#00209F" width="39" height="12.5"/>
<g>
	<g>
		<rect x="-265" y="408.89" fill="#FFFFFF" width="13" height="25"/>
	</g>
	<g>
		<rect x="-278" y="408.89" fill="#006847" width="13" height="25"/>
	</g>
	<g>
		<rect x="-252" y="408.89" fill="#CE1126" width="13" height="25"/>
	</g>
</g>
<g>
	<g>
		<path fill="#894D49" d="M-260.7,417.24h3.3c0,0,1.2,0,1.2,1.2s0,2.2,0,2.2l1.8,1.3l-1.1,0.4l0.3,1l-1-0.1l0.1,1.1l-1-0.5l-0.1,1.1
			l-0.9-0.7l-0.3,1.1l-0.7-0.8l-0.6,1l-0.6-0.9v-3.8l0.8-1.4L-260.7,417.24z"/>
		<path fill="#F5D560" d="M-260.3,420.84l-1.6-1.9c0.6-0.5,1.4,0.1,1.4,0.1s-0.1-0.2-0.3-0.4c-0.3-0.3-0.6-0.4-1-0.4
			c-0.3,0-0.8,0.6-0.8,0.6s0-0.3,0-0.9c0-0.6,0.9-0.6,0.9-0.6h1l1.2,2.1L-260.3,420.84z"/>
	</g>
</g>
</svg>
