<?xml version="1.0" encoding="utf-8"?>
<!-- Generator: Adobe Illustrator 19.0.0, SVG Export Plug-In . SVG Version: 6.00 Build 0)  -->
<svg version="1.1" id="Layer_1" xmlns="http://www.w3.org/2000/svg" xmlns:xlink="http://www.w3.org/1999/xlink" x="0px" y="0px"
	 width="39px" height="25px" viewBox="-286 384 39 25" enable-background="new -286 384 39 25" xml:space="preserve">
<rect id="XMLID_5_" x="-858" y="1168.7" fill="#FAD910" width="39" height="8.3"/>
<rect id="XMLID_8_" x="-858" y="1160.3" fill="#E42F29" width="39" height="8.3"/>
<rect id="XMLID_1_" x="-858" y="1152" width="39" height="8.3"/>
<g>
	<rect x="-286" y="384" fill="#002A8F" width="39" height="5"/>
	<rect x="-286" y="404" fill="#002A8F" width="39" height="5"/>
	<rect x="-286" y="389" fill="#FFFFFF" width="39" height="5"/>
	<rect x="-286" y="394" fill="#002A8F" width="39" height="5"/>
	<rect x="-286" y="399" fill="#FFFFFF" width="39" height="5"/>
	<polygon fill="#CF142B" points="-286,409 -265.5,396.5 -286,384 	"/>
	<polygon fill="#FFFFFF" points="-279.2,393.1 -278.4,395.5 -275.8,395.5 -277.9,397 -277.1,399.4 -279.2,398 -281.2,399.4 
		-280.4,397 -282.5,395.5 -280,395.5 	"/>
</g>
</svg>
