<?xml version="1.0" encoding="utf-8"?>
<!-- Generator: Adobe Illustrator 19.0.0, SVG Export Plug-In . SVG Version: 6.00 Build 0)  -->
<!DOCTYPE svg PUBLIC "-//W3C//DTD SVG 1.1//EN" "http://www.w3.org/Graphics/SVG/1.1/DTD/svg11.dtd">
<svg version="1.1" id="Layer_1" xmlns="http://www.w3.org/2000/svg" xmlns:xlink="http://www.w3.org/1999/xlink" x="0px" y="0px"
	 viewBox="-286 384 39 25" style="enable-background:new -286 384 39 25;" xml:space="preserve">
<style type="text/css">
	.st0{fill:#E42F29;}
	.st1{fill:#F8EA0C;}
</style>
<rect id="XMLID_5_" x="-286" y="384" class="st0" width="39" height="25"/>
<polygon class="st1" points="-274,386.1 -274.1,386.8 -273.3,387.1 -274.1,387.3 -274.1,388.1 -274.5,387.4 -275.3,387.7 
	-274.8,387.1 -275.2,386.4 -274.5,386.7 "/>
<polygon class="st1" points="-274,394.1 -274.1,394.8 -273.3,395.1 -274.1,395.3 -274.1,396.1 -274.5,395.4 -275.3,395.7 
	-274.8,395.1 -275.2,394.4 -274.5,394.7 "/>
<polygon class="st1" points="-272.6,388.4 -272.6,389.2 -273.3,389.5 -272.6,389.7 -272.6,390.5 -272.1,389.8 -271.4,390 
	-271.9,389.4 -271.4,388.8 -272.2,389 "/>
<polygon class="st1" points="-272.2,391.6 -271.9,392.4 -271.2,392.4 -271.8,392.8 -271.6,393.6 -272.2,393.1 -272.8,393.6 
	-272.6,392.8 -273.2,392.4 -272.4,392.4 "/>
<polygon class="st1" points="-280.1,387.2 -279.4,389.5 -276.9,389.5 -278.9,390.9 -278.2,393.2 -280.1,391.8 -282.1,393.2 
	-281.3,390.9 -283.3,389.5 -280.9,389.5 "/>
</svg>
