<?xml version="1.0" encoding="utf-8"?>
<!-- Generator: Adobe Illustrator 19.0.0, SVG Export Plug-In . SVG Version: 6.00 Build 0)  -->
<svg version="1.1" id="Layer_1" xmlns="http://www.w3.org/2000/svg" xmlns:xlink="http://www.w3.org/1999/xlink" x="0px" y="0px"
	 width="39px" height="25px" viewBox="-286 384 39 25" enable-background="new -286 384 39 25" xml:space="preserve">
<g>
	<rect id="XMLID_5_" x="-286" y="384" fill="#0073CF" width="39" height="8.3"/>
	<rect id="XMLID_2_" x="-286" y="400.7" fill="#0073CF" width="39" height="8.3"/>
	<g>
		<polygon fill="#0073CF" points="-273.5,397.2 -273.2,398.1 -272.3,398.1 -273,398.6 -272.7,399.5 -273.5,399 -274.3,399.5 
			-274,398.6 -274.7,398.1 -273.8,398.1 		"/>
		<polygon fill="#0073CF" points="-273.5,393 -273.2,393.9 -272.3,393.9 -273,394.4 -272.7,395.3 -273.5,394.8 -274.3,395.3 
			-274,394.4 -274.7,393.9 -273.8,393.9 		"/>
		<polygon fill="#0073CF" points="-259.5,397.2 -259.2,398.1 -258.3,398.1 -259,398.6 -258.7,399.5 -259.5,399 -260.3,399.5 
			-260,398.6 -260.7,398.1 -259.8,398.1 		"/>
		<polygon fill="#0073CF" points="-266.5,395.1 -266.2,396 -265.3,396 -266,396.5 -265.7,397.4 -266.5,396.9 -267.3,397.4 
			-267,396.5 -267.7,396 -266.8,396 		"/>
		<polygon fill="#0073CF" points="-259.5,393 -259.2,393.9 -258.3,393.9 -259,394.4 -258.7,395.3 -259.5,394.8 -260.3,395.3 
			-260,394.4 -260.7,393.9 -259.8,393.9 		"/>
	</g>
</g>
</svg>
