<?xml version="1.0" encoding="utf-8"?>
<!-- Generator: Adobe Illustrator 19.0.0, SVG Export Plug-In . SVG Version: 6.00 Build 0)  -->
<svg version="1.1" id="Layer_1" xmlns="http://www.w3.org/2000/svg" xmlns:xlink="http://www.w3.org/1999/xlink" x="0px" y="0px"
	 width="39px" height="25px" viewBox="-286 384 39 25" enable-background="new -286 384 39 25" xml:space="preserve">
<g>
	<polygon points="-286,384 -266.5,396.5 -286,409 	"/>
	<polygon points="-247,384 -266.5,396.5 -247,409 	"/>
	<polygon fill="#009B3A" points="-266.5,396.5 -247,384 -286,384 	"/>
	<polygon fill="#009B3A" points="-266.5,396.5 -286,409 -247,409 	"/>
	<polygon fill="#FED100" points="-247,385.8 -247,384 -249.8,384 -266.5,394.7 -283.2,384 -286,384 -286,385.8 -269.3,396.5 
		-286,407.2 -286,409 -283.2,409 -266.5,398.3 -249.8,409 -247,409 -247,407.2 -263.7,396.5 	"/>
</g>
</svg>
