<?xml version="1.0" encoding="utf-8"?>
<!-- Generator: Adobe Illustrator 18.1.1, SVG Export Plug-In . SVG Version: 6.00 Build 0)  -->
<svg version="1.1" id="Layer_1" xmlns="http://www.w3.org/2000/svg" xmlns:xlink="http://www.w3.org/1999/xlink" x="0px" y="0px"
	 width="20px" height="22.7px" viewBox="470 268.6 20 22.7" enable-background="new 470 268.6 20 22.7" xml:space="preserve">
<g id="XMLID_8_">
	<path id="XMLID_11_" fill="#101010" d="M487.8,275.1l0.5-0.5c0.5-0.5,0.5-1.4,0-1.9c-0.5-0.5-1.4-0.5-1.9,0l-0.5,0.5
		c-1.4-1-3.1-1.7-4.9-1.9v-1.1h1.8c0.5,0,0.8-0.4,0.8-0.8c0-0.5-0.4-0.8-0.8-0.8h-5.7c-0.5,0-0.8,0.4-0.8,0.8c0,0.5,0.4,0.8,0.8,0.8
		h1.8v1.1c-5,0.5-9,4.8-9,9.9c0,5.5,4.5,10,10,10s10-4.5,10-10C490,279,489.2,276.9,487.8,275.1z M480,289.9c-4.7,0-8.6-3.8-8.6-8.6
		s3.8-8.6,8.6-8.6s8.6,3.8,8.6,8.6C488.5,286.1,484.7,289.9,480,289.9z"/>
	<path id="XMLID_12_" fill="#101010" d="M480,275.5v5.8l-4.4,3.8c1.1,1.3,2.7,2,4.4,2c3.2,0,5.8-2.6,5.8-5.8
		C485.8,278.1,483.2,275.5,480,275.5z"/>
</g>
</svg>
