<?xml version="1.0" encoding="utf-8"?>
<!-- Generator: Adobe Illustrator 18.1.1, SVG Export Plug-In . SVG Version: 6.00 Build 0)  -->
<svg version="1.1" id="Layer_1" xmlns="http://www.w3.org/2000/svg" xmlns:xlink="http://www.w3.org/1999/xlink" x="0px" y="0px"
	 width="34px" height="25.4px" viewBox="463 267.3 34 25.4" enable-background="new 463 267.3 34 25.4" xml:space="preserve">
<g id="XMLID_8_">
	<path id="XMLID_9_" fill="#101010" d="M463,279.3l2.2,7.9c0,0.1,0,0.1,0.1,0.2l0,0h0c0.6,1.7,4.4,3,9.5,3.6
		c-0.3-1.3-0.6-2.9-0.6-3.3c-0.1-0.6,0.6-1.4,1-1.9c0.4-0.5,0.7-1,1.3-1s2.9,0,3.7,0c0,0,0,0,0,0c0.7,0,3.1,0,3.7,0s0.9,0.5,1.3,1
		c0.4,0.5,1.1,1.3,1,1.9c-0.1,0.3-0.4,2-0.6,3.3c5.1-0.6,8.9-1.9,9.5-3.6h0l0,0c0-0.1,0-0.1,0.1-0.2l2.2-7.9
		c-2.9,1.9-9.4,3.2-17,3.2S465.9,281.2,463,279.3z"/>
	<path id="XMLID_11_" fill="#101010" d="M482.8,288.5h-5.6c-0.5,0-0.9,0.3-0.9,0.8l0.5,2.5c0,0.5,0.4,0.8,0.9,0.8h4.6
		c0.5,0,0.9-0.4,0.9-0.8l0.5-2.5C483.7,288.9,483.3,288.5,482.8,288.5z"/>
	<path id="XMLID_12_" fill="#101010" d="M480,278.4c-3.6,0-6.9,0.5-9.3,1.2c2.7,0.4,5.9,0.7,9.3,0.7l0,0l0,0c3.4,0,6.6-0.3,9.3-0.7
		C486.9,278.9,483.6,278.4,480,278.4L480,278.4L480,278.4z"/>
	<path id="XMLID_13_" fill="#101010" d="M494,278.5c-2.6-1.6-7.8-2.6-14-2.6l0,0l0,0c-6.2,0-11.4,1.1-14,2.6
		c0.9,0.3,1.9,0.6,3.1,0.8c2.8-1.2,6.9-1.8,10.9-1.8c4,0,8.1,0.6,10.9,1.8C492.1,279.1,493.1,278.8,494,278.5z"/>
	<path id="XMLID_14_" fill="#101010" d="M465.1,278.2c2.8-2,8.9-3.1,14.9-3.1s12.1,1.1,14.9,3.1c1.3-0.6,2.1-1.3,2.1-2
		c0-0.8-0.9-1.5-2.5-2.2v-1.9l1.2,0.4c0.3,0.1,0.4-0.1,0.5-0.4l0.2-1.5c0-0.3-0.3-0.5-0.6-0.6l-3.2-1.1c-0.3-0.1-0.6,0.1-0.6,0.4
		l0.2,1.5c0,0.3,0.1,0.5,0.5,0.6l1,0.4l0,2c-3-1-7.7-1.7-13.2-1.7v-2.1h1c0.3,0,0.6-0.3,0.6-0.6l0.3-1.6c0-0.3-0.3-0.5-0.6-0.5H480
		h-1.8c-0.3,0-0.6,0.2-0.6,0.5l0.3,1.6c0,0.3,0.3,0.6,0.6,0.6h1v2.1c-5.4,0-10.2,0.7-13.2,1.7l0-2l1-0.4c0.3-0.1,0.4-0.3,0.5-0.6
		l0.2-1.5c0-0.3-0.3-0.5-0.6-0.4l-3.2,1.1c-0.3,0.1-0.6,0.3-0.6,0.6l0.2,1.5c0.1,0.3,0.1,0.4,0.5,0.4l1.2-0.4v1.9
		c-1.6,0.6-2.5,1.4-2.5,2.2C463,276.9,463.8,277.6,465.1,278.2z"/>
</g>
</svg>
