<?xml version="1.0" encoding="utf-8"?>
<!-- Generator: Adobe Illustrator 18.1.1, SVG Export Plug-In . SVG Version: 6.00 Build 0)  -->
<svg version="1.1" id="Layer_1" xmlns="http://www.w3.org/2000/svg" xmlns:xlink="http://www.w3.org/1999/xlink" x="0px" y="0px"
	 width="24px" height="34.2px" viewBox="0 0 24 34.2" enable-background="new 0 0 24 34.2" xml:space="preserve">
<g>
	<path id="XMLID_1376_" fill="#1382C5" d="M12,0c0,0-4.8,2.4-12,3.4v12.7h12h12V3.4C16.8,2.4,12,0,12,0z"/>
	<path id="XMLID_1324_" fill="#FFFFFF" d="M24,20.4v-4.4H12H0v4.4c0,0-0.6,9.4,12,13.8C24.6,29.8,24,20.4,24,20.4z"/>
	<path id="XMLID_1516_" fill="#E42F29" d="M9.6,33.2c0.7,0.3,1.5,0.7,2.4,1c0.9-0.3,1.7-0.6,2.4-1V16.1H9.6V33.2z"/>
	<path id="XMLID_1533_" fill="#E42F29" d="M4.8,30.2V16.1H0v4.4v0.5C0,22.3,0.6,26.5,4.8,30.2z"/>
	<path id="XMLID_4_" fill="#E42F29" d="M19.2,30.2V16.1H24v4.4v0.5C23.9,22.3,23.4,26.5,19.2,30.2z"/>
	<polygon id="XMLID_445_" fill="#FFFFFF" points="12,3.8 13.5,6.8 16.8,7.3 14.4,9.6 15,13 12,11.4 9,13 9.6,9.6 7.2,7.3 10.5,6.8 	
		"/>
</g>
</svg>
