<?xml version="1.0" encoding="utf-8"?>
<!-- Generator: Adobe Illustrator 18.1.1, SVG Export Plug-In . SVG Version: 6.00 Build 0)  -->
<svg version="1.1" id="Layer_1" xmlns="http://www.w3.org/2000/svg" xmlns:xlink="http://www.w3.org/1999/xlink" x="0px" y="0px"
	 width="31.5px" height="30px" viewBox="0 0 31.5 30" enable-background="new 0 0 31.5 30" xml:space="preserve">
<g>
	<path fill="#E8E8E8" d="M16.5,30c8.3,0,15-6.7,15-15s-6.7-15-15-15l-1.1,1.1v28.5L16.5,30"/>
	<path fill="#FFFFFF" d="M16.5,0c-8.3,0-15,6.7-15,15s6.7,15,15,15"/>
	<path fill="#111111" d="M4.2,6.4L5,8.1h6.8l2-6.2l-1.6-1.3C9,1.6,6.2,3.7,4.2,6.4"/>
	<path fill="#111111" d="M1.6,14.6c0,0.1,0,0.2,0,0.4c0,3.2,1,6.2,2.8,8.7h2.4l2-6.2l-5.5-4L1.6,14.6z"/>
	<polygon fill="#111111" points="19.9,10.3 16.5,10.3 13.2,10.3 11.2,16.6 16.5,20.6 21.9,16.6 	"/>
	<path fill="#111111" d="M28.8,6.4l-0.8,1.7h-6.8l-2-6.2l1.6-1.3C24.1,1.6,26.9,3.7,28.8,6.4"/>
	<path fill="#111111" d="M31.5,14.6c0,0.1,0,0.2,0,0.4c0,3.2-1,6.2-2.8,8.7h-2.4l-2-6.2l5.5-4L31.5,14.6z"/>
	<path fill="#111111" d="M21.9,27.2l-5.4-4l-5.4,4l0.8,2.1c1.4,0.5,3,0.7,4.6,0.7c1.6,0,3.1-0.3,4.6-0.7L21.9,27.2z"/>
</g>
</svg>
