<?xml version="1.0" encoding="utf-8"?>
<!-- Generator: Adobe Illustrator 18.1.1, SVG Export Plug-In . SVG Version: 6.00 Build 0)  -->
<svg version="1.1" id="Layer_1" xmlns="http://www.w3.org/2000/svg" xmlns:xlink="http://www.w3.org/1999/xlink" x="0px" y="0px"
	 width="24px" height="24px" viewBox="0 0 24 24" enable-background="new 0 0 24 24" xml:space="preserve">
<g>
	<g>
		<path fill="#0082CA" d="M12,24C5.4,24,0,18.6,0,12C0,5.4,5.4,0,12,0c6.6,0,12,5.4,12,12C24,18.6,18.6,24,12,24z M12,2
			C6.5,2,2,6.5,2,12c0,5.5,4.5,10,10,10c5.5,0,10-4.5,10-10C22,6.5,17.5,2,12,2z"/>
	</g>
	<g>
		<path fill="#0082CA" d="M11,18c-0.4,0-0.7-0.2-1-0.5c-0.5-0.7-0.1-1.7,1-4.4c0.2-0.4,0.4-0.9,0.6-1.3c-0.4,0.3-1,0.3-1.4-0.1
			c-0.4-0.4-0.4-1,0-1.4C10.4,10.2,11.6,9,13,9c0.4,0,0.7,0.2,1,0.5c0.5,0.7,0.1,1.7-1,4.4c-0.2,0.4-0.4,0.9-0.6,1.3
			c0.4-0.3,1-0.3,1.4,0.1c0.4,0.4,0.4,1,0,1.4C13.6,16.8,12.4,18,11,18z"/>
	</g>
	<path fill="#0082CA" d="M15,6.5C15,7.3,14.3,8,13.5,8C12.7,8,12,7.3,12,6.5C12,5.7,12.7,5,13.5,5C14.3,5,15,5.7,15,6.5"/>
</g>
</svg>
