<?xml version="1.0" encoding="utf-8"?>
<!-- Generator: Adobe Illustrator 18.1.1, SVG Export Plug-In . SVG Version: 6.00 Build 0)  -->
<svg version="1.1" id="Layer_1" xmlns="http://www.w3.org/2000/svg" xmlns:xlink="http://www.w3.org/1999/xlink" x="0px" y="0px"
	 width="70px" height="33.9px" viewBox="0 0 70 33.9" enable-background="new 0 0 70 33.9" xml:space="preserve">
<g>
	<rect x="0.8" y="15.8" fill="#111111" width="69.2" height="2.3"/>
	<g>
		<defs>
			<rect id="SVGID_1_" y="0" width="70" height="33.9"/>
		</defs>
		<clipPath id="SVGID_2_">
			<use xlink:href="#SVGID_1_"  overflow="visible"/>
		</clipPath>
		<path clip-path="url(#SVGID_2_)" fill="#111111" d="M8.9,24.5c1,0.9,1.5,2.2,1.5,3.9c0,1.7-0.5,3-1.5,3.9c-1,1-2.5,1.4-4.5,1.4
			H0.8V23.1h3.8C6.4,23.1,7.9,23.6,8.9,24.5 M7.1,30.9C7.7,30.3,8,29.5,8,28.5c0-1-0.3-1.8-0.9-2.4c-0.6-0.6-1.5-0.8-2.7-0.8H3.1
			v6.5h1.5C5.7,31.7,6.6,31.4,7.1,30.9"/>
		<rect x="12.5" y="23.1" clip-path="url(#SVGID_2_)" fill="#111111" width="2.4" height="10.6"/>
		<polygon clip-path="url(#SVGID_2_)" fill="#111111" points="21.6,29.9 24.4,23.1 26.9,23.1 22.6,33.8 20.6,33.8 16.4,23.1 
			18.9,23.1 		"/>
		<rect x="28.4" y="23.1" clip-path="url(#SVGID_2_)" fill="#111111" width="2.4" height="10.6"/>
		<path clip-path="url(#SVGID_2_)" fill="#111111" d="M35.7,25.3c-0.2,0.2-0.3,0.4-0.3,0.7s0.1,0.6,0.4,0.7c0.3,0.2,0.9,0.4,1.9,0.6
			s1.8,0.6,2.4,1.1c0.6,0.5,0.8,1.2,0.8,2.2s-0.4,1.7-1.1,2.3c-0.7,0.6-1.7,0.9-2.8,0.9c-1.7,0-3.2-0.6-4.6-1.9l1.4-1.7
			c1.1,1,2.2,1.5,3.2,1.5c0.4,0,0.8-0.1,1-0.3c0.2-0.2,0.4-0.4,0.4-0.8s-0.1-0.6-0.4-0.8c-0.3-0.2-0.8-0.4-1.6-0.6
			c-1.2-0.3-2.1-0.7-2.7-1.1c-0.6-0.5-0.9-1.2-0.9-2.2s0.4-1.8,1.1-2.3c0.7-0.5,1.6-0.8,2.7-0.8c0.7,0,1.4,0.1,2.1,0.4
			c0.7,0.2,1.3,0.6,1.9,1L39.5,26c-0.9-0.7-1.9-1-2.9-1C36.3,25,35.9,25.1,35.7,25.3"/>
		<rect x="43" y="23.1" clip-path="url(#SVGID_2_)" fill="#111111" width="2.4" height="10.6"/>
		<path clip-path="url(#SVGID_2_)" fill="#111111" d="M56.9,32.3c-1.1,1-2.4,1.6-4,1.6c-1.6,0-2.9-0.5-4-1.6
			c-1.1-1.1-1.6-2.4-1.6-3.9c0-1.6,0.5-2.9,1.6-3.9c1.1-1,2.4-1.6,4-1.6c1.6,0,2.9,0.5,4,1.6c1.1,1.1,1.6,2.4,1.6,3.9
			C58.5,30,58,31.3,56.9,32.3 M56.1,28.4c0-0.9-0.3-1.8-0.9-2.4c-0.6-0.7-1.4-1-2.2-1c-0.9,0-1.6,0.3-2.2,1
			c-0.6,0.7-0.9,1.5-0.9,2.4c0,0.9,0.3,1.8,0.9,2.4c0.6,0.7,1.4,1,2.2,1c0.9,0,1.6-0.3,2.2-1C55.8,30.2,56.1,29.3,56.1,28.4"/>
		<polygon clip-path="url(#SVGID_2_)" fill="#111111" points="67.6,23.1 70,23.1 70,33.8 67.6,33.8 62.6,27.1 62.6,33.8 60.2,33.8 
			60.2,23.1 62.4,23.1 67.6,30 		"/>
		<rect x="59.3" y="0.2" clip-path="url(#SVGID_2_)" fill="#0082CA" width="10.7" height="10.7"/>
		<path clip-path="url(#SVGID_2_)" d="M0,9.3l1.2-1.7C2,8.4,3.1,9,4.6,9c1.2,0,1.9-0.6,1.9-1.2c0-1.9-6.1-0.6-6.1-4.6
			c0-1.8,1.5-3.2,4-3.2c1.7,0,3.1,0.5,4.2,1.5L7.3,3.1C6.4,2.3,5.3,2,4.2,2c-1,0-1.5,0.4-1.5,1.1c0,1.7,6.1,0.6,6.1,4.5
			c0,1.9-1.4,3.4-4.3,3.4C2.5,11,1,10.3,0,9.3"/>
		<polygon clip-path="url(#SVGID_2_)" points="17.6,10.8 17.6,6.3 12.6,6.3 12.6,10.8 10.3,10.8 10.3,0.2 12.6,0.2 12.6,4.3 
			17.6,4.3 17.6,0.2 19.9,0.2 19.9,10.8 		"/>
		<path clip-path="url(#SVGID_2_)" d="M22,6.6V0.2h2.3v6.3C24.3,8,25.1,9,26.8,9c1.6,0,2.5-1,2.5-2.5V0.2h2.3v6.4
			c0,2.7-1.6,4.5-4.8,4.5S22,9.2,22,6.6"/>
		<polygon clip-path="url(#SVGID_2_)" points="33.7,10.8 33.7,0.2 36,0.2 36,8.8 40.5,8.8 40.5,10.8 		"/>
		<polygon clip-path="url(#SVGID_2_)" points="42.9,10.8 42.9,2.2 39.8,2.2 39.8,0.2 48.3,0.2 48.3,2.2 45.2,2.2 45.2,10.8 		"/>
		<polygon clip-path="url(#SVGID_2_)" points="49.4,10.8 49.4,9 54.4,2.2 49.4,2.2 49.4,0.2 57.4,0.2 57.4,2 52.3,8.8 57.5,8.8 
			57.5,10.8 		"/>
	</g>
</g>
</svg>
