<?xml version="1.0" encoding="utf-8"?>
<!-- Generator: Adobe Illustrator 18.1.1, SVG Export Plug-In . SVG Version: 6.00 Build 0)  -->
<svg version="1.1" id="Layer_1" xmlns="http://www.w3.org/2000/svg" xmlns:xlink="http://www.w3.org/1999/xlink" x="0px" y="0px"
	 width="56.3px" height="17.3px" viewBox="0 0 56.3 17.3" enable-background="new 0 0 56.3 17.3" xml:space="preserve">
<g>
	<polygon fill="#99A4AE" points="26.9,0 26.9,5.5 26.8,5.5 23.5,0 21.1,0 21.1,8 22.8,8 22.8,2.3 22.9,2.3 26.3,8 28.6,8 28.6,0 	
		"/>
	<g>
		<defs>
			<rect id="SVGID_1_" y="0" width="56" height="17.3"/>
		</defs>
		<clipPath id="SVGID_2_">
			<use xlink:href="#SVGID_1_"  overflow="visible"/>
		</clipPath>
		<path clip-path="url(#SVGID_2_)" fill="#99A4AE" d="M34.1,5.3c0,1.5-0.4,2.9-2.5,2.9c-1.3,0-2.2-0.6-2.4-1.9l1.6-0.4
			c0,0.4,0.4,0.7,0.8,0.7c0.8,0,0.8-0.9,0.8-1.5V0h1.8V5.3z"/>
		<rect x="35" y="0" clip-path="url(#SVGID_2_)" fill="#99A4AE" width="1.8" height="8"/>
		<polygon clip-path="url(#SVGID_2_)" fill="#99A4AE" points="21.1,9.4 23.7,9.4 25.6,14.6 25.6,14.6 27.4,9.4 30.1,9.4 30.1,17.3 
			28.3,17.3 28.3,11.2 28.3,11.2 26.2,17.3 24.9,17.3 22.9,11.2 22.8,11.2 22.8,17.3 21.1,17.3 		"/>
		<polygon clip-path="url(#SVGID_2_)" fill="#99A4AE" points="31.1,9.4 36.5,9.4 36.5,11 32.8,11 32.8,12.5 36.3,12.5 36.3,14.1 
			32.8,14.1 32.8,15.7 36.7,15.7 36.7,17.3 31.1,17.3 		"/>
		<path clip-path="url(#SVGID_2_)" fill="#99A4AE" d="M37.6,9.4h2.6c2.6,0,4.7,1.1,4.7,4c0,2.6-2.1,4-4.5,4h-2.9V9.4z M39.4,15.7
			h0.9c1.6,0,2.9-0.6,2.9-2.4c0-1.6-1.2-2.3-2.7-2.3h-1V15.7z"/>
		<rect x="45.6" y="9.4" clip-path="url(#SVGID_2_)" fill="#99A4AE" width="1.8" height="8"/>
		<path clip-path="url(#SVGID_2_)" fill="#99A4AE" d="M51.1,9.4h1.5l3.5,8h-2l-0.7-1.7h-3.1l-0.7,1.7h-1.9L51.1,9.4z M51.8,11.7
			l-1,2.5h1.9L51.8,11.7z"/>
		<rect y="0" clip-path="url(#SVGID_2_)" fill="#0082CA" width="17.3" height="17.3"/>
	</g>
</g>
</svg>
