<?xml version="1.0" encoding="utf-8"?>
<!-- Generator: Adobe Illustrator 18.1.1, SVG Export Plug-In . SVG Version: 6.00 Build 0)  -->
<svg version="1.1" id="Layer_1" xmlns="http://www.w3.org/2000/svg" xmlns:xlink="http://www.w3.org/1999/xlink" x="0px" y="0px"
	 width="56px" height="27.1px" viewBox="-437 267.5 56 27.1" enable-background="new -437 267.5 56 27.1" xml:space="preserve">
<rect x="-436.4" y="280.1" fill="#0F0F0F" width="55.4" height="1.8"/>
<g>
	<g>
		<defs>
			<rect id="SVGID_1_" x="-437" y="267.5" width="56" height="27.1"/>
		</defs>
		<clipPath id="SVGID_2_">
			<use xlink:href="#SVGID_1_"  overflow="visible"/>
		</clipPath>
		<path clip-path="url(#SVGID_2_)" fill="#111111" d="M-429.9,287.1c0.8,0.7,1.2,1.8,1.2,3.1c0,1.4-0.4,2.4-1.2,3.1
			c-0.8,0.8-2,1.1-3.6,1.1h-2.9V286h3C-431.9,286-430.7,286.4-429.9,287.1 M-431.3,292.2c0.5-0.5,0.7-1.1,0.7-1.9
			c0-0.8-0.2-1.4-0.7-1.9c-0.5-0.5-1.2-0.6-2.2-0.6h-1v5.2h1.2C-432.4,292.8-431.7,292.6-431.3,292.2"/>
	</g>
	<g>
		<defs>
			<rect id="SVGID_3_" x="-437" y="267.5" width="56" height="27.1"/>
		</defs>
		<clipPath id="SVGID_4_">
			<use xlink:href="#SVGID_3_"  overflow="visible"/>
		</clipPath>
		<rect x="-427" y="286" clip-path="url(#SVGID_4_)" fill="#111111" width="1.9" height="8.5"/>
	</g>
	<g>
		<defs>
			<rect id="SVGID_5_" x="-437" y="267.5" width="56" height="27.1"/>
		</defs>
		<clipPath id="SVGID_6_">
			<use xlink:href="#SVGID_5_"  overflow="visible"/>
		</clipPath>
		<polygon clip-path="url(#SVGID_6_)" fill="#111111" points="-419.7,291.4 -417.5,286 -415.5,286 -418.9,294.5 -420.5,294.5 
			-423.9,286 -421.9,286 		"/>
	</g>
	<g>
		<defs>
			<rect id="SVGID_7_" x="-437" y="267.5" width="56" height="27.1"/>
		</defs>
		<clipPath id="SVGID_8_">
			<use xlink:href="#SVGID_7_"  overflow="visible"/>
		</clipPath>
		<rect x="-414.3" y="286" clip-path="url(#SVGID_8_)" fill="#111111" width="1.9" height="8.5"/>
	</g>
	<g>
		<defs>
			<rect id="SVGID_9_" x="-437" y="267.5" width="56" height="27.1"/>
		</defs>
		<clipPath id="SVGID_10_">
			<use xlink:href="#SVGID_9_"  overflow="visible"/>
		</clipPath>
		<path clip-path="url(#SVGID_10_)" fill="#111111" d="M-408.4,287.7c-0.2,0.2-0.2,0.3-0.2,0.6c0,0.2,0.1,0.5,0.3,0.6
			c0.2,0.2,0.7,0.3,1.5,0.5s1.4,0.5,1.9,0.9c0.5,0.4,0.6,1,0.6,1.8c0,0.8-0.3,1.4-0.9,1.8c-0.6,0.5-1.4,0.7-2.2,0.7
			c-1.4,0-2.6-0.5-3.7-1.5l1.1-1.4c0.9,0.8,1.8,1.2,2.6,1.2c0.3,0,0.6-0.1,0.8-0.2c0.2-0.2,0.3-0.3,0.3-0.6c0-0.3-0.1-0.5-0.3-0.6
			c-0.2-0.2-0.6-0.3-1.3-0.5c-1-0.2-1.7-0.6-2.2-0.9c-0.5-0.4-0.7-1-0.7-1.8s0.3-1.4,0.9-1.8s1.3-0.6,2.2-0.6c0.6,0,1.1,0.1,1.7,0.3
			c0.6,0.2,1,0.5,1.5,0.8l-0.9,1.4c-0.7-0.6-1.5-0.8-2.3-0.8C-408,287.5-408.3,287.6-408.4,287.7"/>
	</g>
	<g>
		<defs>
			<rect id="SVGID_11_" x="-437" y="267.5" width="56" height="27.1"/>
		</defs>
		<clipPath id="SVGID_12_">
			<use xlink:href="#SVGID_11_"  overflow="visible"/>
		</clipPath>
		<rect x="-402.6" y="286" clip-path="url(#SVGID_12_)" fill="#111111" width="1.9" height="8.5"/>
	</g>
	<g>
		<defs>
			<rect id="SVGID_13_" x="-437" y="267.5" width="56" height="27.1"/>
		</defs>
		<clipPath id="SVGID_14_">
			<use xlink:href="#SVGID_13_"  overflow="visible"/>
		</clipPath>
		<path clip-path="url(#SVGID_14_)" fill="#111111" d="M-391.5,293.3c-0.9,0.8-1.9,1.3-3.2,1.3s-2.3-0.4-3.2-1.3s-1.3-1.9-1.3-3.1
			c0-1.3,0.4-2.3,1.3-3.1c0.9-0.8,1.9-1.3,3.2-1.3s2.3,0.4,3.2,1.3c0.9,0.9,1.3,1.9,1.3,3.1C-390.2,291.5-390.6,292.5-391.5,293.3
			 M-392.1,290.2c0-0.7-0.2-1.4-0.7-1.9c-0.5-0.6-1.1-0.8-1.8-0.8c-0.7,0-1.3,0.2-1.8,0.8c-0.5,0.6-0.7,1.2-0.7,1.9s0.2,1.4,0.7,1.9
			c0.5,0.6,1.1,0.8,1.8,0.8c0.7,0,1.3-0.2,1.8-0.8C-392.4,291.6-392.1,290.9-392.1,290.2"/>
	</g>
	<g>
		<defs>
			<rect id="SVGID_15_" x="-437" y="267.5" width="56" height="27.1"/>
		</defs>
		<clipPath id="SVGID_16_">
			<use xlink:href="#SVGID_15_"  overflow="visible"/>
		</clipPath>
		<polygon clip-path="url(#SVGID_16_)" fill="#111111" points="-382.9,286 -381,286 -381,294.5 -382.9,294.5 -386.9,289.2 
			-386.9,294.5 -388.8,294.5 -388.8,286 -387.1,286 -382.9,291.5 		"/>
	</g>
	<g>
		<defs>
			<rect id="SVGID_17_" x="-437" y="267.5" width="56" height="27.1"/>
		</defs>
		<clipPath id="SVGID_18_">
			<use xlink:href="#SVGID_17_"  overflow="visible"/>
		</clipPath>
		<rect x="-389.6" y="267.6" clip-path="url(#SVGID_18_)" fill="#0F0F0F" width="8.6" height="8.6"/>
	</g>
	<g>
		<defs>
			<rect id="SVGID_19_" x="-437" y="267.5" width="56" height="27.1"/>
		</defs>
		<clipPath id="SVGID_20_">
			<use xlink:href="#SVGID_19_"  overflow="visible"/>
		</clipPath>
		<path clip-path="url(#SVGID_20_)" d="M-437,274.9l1-1.4c0.6,0.6,1.5,1.1,2.7,1.1c1,0,1.5-0.5,1.5-1c0-1.5-4.9-0.5-4.9-3.7
			c0-1.4,1.2-2.6,3.2-2.6c1.4,0,2.5,0.4,3.4,1.2l-1,1.3c-0.7-0.6-1.6-0.9-2.5-0.9c-0.8,0-1.2,0.3-1.2,0.9c0,1.4,4.9,0.5,4.9,3.6
			c0,1.5-1.1,2.7-3.4,2.7C-435,276.3-436.2,275.7-437,274.9"/>
	</g>
	<g>
		<defs>
			<rect id="SVGID_21_" x="-437" y="267.5" width="56" height="27.1"/>
		</defs>
		<clipPath id="SVGID_22_">
			<use xlink:href="#SVGID_21_"  overflow="visible"/>
		</clipPath>
		<polygon clip-path="url(#SVGID_22_)" points="-422.9,276.1 -422.9,272.5 -426.9,272.5 -426.9,276.1 -428.8,276.1 -428.8,267.6 
			-426.9,267.6 -426.9,270.9 -422.9,270.9 -422.9,267.6 -421.1,267.6 -421.1,276.1 		"/>
	</g>
	<g>
		<defs>
			<rect id="SVGID_23_" x="-437" y="267.5" width="56" height="27.1"/>
		</defs>
		<clipPath id="SVGID_24_">
			<use xlink:href="#SVGID_23_"  overflow="visible"/>
		</clipPath>
		<path clip-path="url(#SVGID_24_)" d="M-419.4,272.8v-5.1h1.8v5c0,1.2,0.6,2,2,2c1.3,0,2-0.8,2-2v-5h1.8v5.1c0,2.2-1.3,3.6-3.8,3.6
			S-419.4,274.8-419.4,272.8"/>
	</g>
	<g>
		<defs>
			<rect id="SVGID_25_" x="-437" y="267.5" width="56" height="27.1"/>
		</defs>
		<clipPath id="SVGID_26_">
			<use xlink:href="#SVGID_25_"  overflow="visible"/>
		</clipPath>
		<polygon clip-path="url(#SVGID_26_)" points="-410,276.1 -410,267.6 -408.2,267.6 -408.2,274.5 -404.6,274.5 -404.6,276.1 		"/>
	</g>
	<g>
		<defs>
			<rect id="SVGID_27_" x="-437" y="267.5" width="56" height="27.1"/>
		</defs>
		<clipPath id="SVGID_28_">
			<use xlink:href="#SVGID_27_"  overflow="visible"/>
		</clipPath>
		<polygon clip-path="url(#SVGID_28_)" points="-402.7,276.1 -402.7,269.2 -405.2,269.2 -405.2,267.6 -398.4,267.6 -398.4,269.2 
			-400.8,269.2 -400.8,276.1 		"/>
	</g>
	<g>
		<defs>
			<rect id="SVGID_29_" x="-437" y="267.5" width="56" height="27.1"/>
		</defs>
		<clipPath id="SVGID_30_">
			<use xlink:href="#SVGID_29_"  overflow="visible"/>
		</clipPath>
		<polygon clip-path="url(#SVGID_30_)" points="-397.5,276.1 -397.5,274.7 -393.5,269.2 -397.5,269.2 -397.5,267.6 -391.1,267.6 
			-391.1,269.1 -395.2,274.5 -391,274.5 -391,276.1 		"/>
	</g>
</g>
</svg>
