<?xml version="1.0" encoding="utf-8"?>
<!-- Generator: Adobe Illustrator 18.1.1, SVG Export Plug-In . SVG Version: 6.00 Build 0)  -->
<svg version="1.1" id="Layer_1" xmlns="http://www.w3.org/2000/svg" xmlns:xlink="http://www.w3.org/1999/xlink" x="0px" y="0px"
	 width="68px" height="21px" viewBox="-457 270.8 68 21" enable-background="new -457 270.8 68 21" xml:space="preserve">
<g>
	<polygon fill="#0F0F0F" points="-424.3,270.8 -424.3,277.5 -424.5,277.5 -428.5,270.8 -431.4,270.8 -431.4,280.6 -429.3,280.6 
		-429.3,273.6 -429.2,273.6 -425.1,280.6 -422.3,280.6 -422.3,270.8 	"/>
	<g>
		<g>
			<defs>
				<rect id="SVGID_1_" x="-457" y="270.8" width="68" height="21"/>
			</defs>
			<clipPath id="SVGID_2_">
				<use xlink:href="#SVGID_1_"  overflow="visible"/>
			</clipPath>
			<path clip-path="url(#SVGID_2_)" fill="#0F0F0F" d="M-415.5,277.3c0,1.8-0.6,3.5-3.2,3.5c-1.6,0-2.7-0.7-2.9-2.3l1.9-0.5
				c0,0.5,0.5,0.9,1,0.9c1,0,1-1.1,1-1.8v-6.2h2.2V277.3L-415.5,277.3z"/>
		</g>
		<rect x="-457" y="270.8" fill="none" width="68" height="21"/>
		<rect x="-414.5" y="270.8" fill="#0F0F0F" width="2.2" height="9.7"/>
		<g>
			<defs>
				<rect id="SVGID_3_" x="-457" y="270.8" width="68" height="21"/>
			</defs>
			<clipPath id="SVGID_4_">
				<use xlink:href="#SVGID_3_"  overflow="visible"/>
			</clipPath>
			<polygon clip-path="url(#SVGID_4_)" fill="#0F0F0F" points="-431.4,282.3 -428.2,282.3 -425.9,288.6 -425.9,288.6 -423.7,282.3 
				-420.5,282.3 -420.5,291.9 -422.6,291.9 -422.6,284.4 -422.6,284.4 -425.2,291.9 -426.8,291.9 -429.2,284.4 -429.3,284.4 
				-429.3,291.9 -431.4,291.9 			"/>
		</g>
		<g>
			<defs>
				<rect id="SVGID_5_" x="-457" y="270.8" width="68" height="21"/>
			</defs>
			<clipPath id="SVGID_6_">
				<use xlink:href="#SVGID_5_"  overflow="visible"/>
			</clipPath>
			<polygon clip-path="url(#SVGID_6_)" fill="#0F0F0F" points="-419.2,282.3 -412.7,282.3 -412.7,284.2 -417.2,284.2 -417.2,286 
				-412.9,286 -412.9,288 -417.2,288 -417.2,289.9 -412.4,289.9 -412.4,291.9 -419.2,291.9 			"/>
		</g>
		<g>
			<defs>
				<rect id="SVGID_7_" x="-457" y="270.8" width="68" height="21"/>
			</defs>
			<clipPath id="SVGID_8_">
				<use xlink:href="#SVGID_7_"  overflow="visible"/>
			</clipPath>
			<path clip-path="url(#SVGID_8_)" fill="#0F0F0F" d="M-411.3,282.3h3.2c3.2,0,5.7,1.3,5.7,4.9c0,3.2-2.5,4.9-5.5,4.9h-3.5v-9.7
				H-411.3z M-409.2,289.9h1.1c1.9,0,3.5-0.7,3.5-2.9c0-1.9-1.5-2.8-3.3-2.8h-1.2v5.7H-409.2z"/>
		</g>
		<g>
			<defs>
				<rect id="SVGID_9_" x="-457" y="270.8" width="68" height="21"/>
			</defs>
			<clipPath id="SVGID_10_">
				<use xlink:href="#SVGID_9_"  overflow="visible"/>
			</clipPath>
			<rect x="-401.6" y="282.3" clip-path="url(#SVGID_10_)" fill="#0F0F0F" width="2.2" height="9.7"/>
		</g>
		<g>
			<defs>
				<rect id="SVGID_11_" x="-457" y="270.8" width="68" height="21"/>
			</defs>
			<clipPath id="SVGID_12_">
				<use xlink:href="#SVGID_11_"  overflow="visible"/>
			</clipPath>
			<path clip-path="url(#SVGID_12_)" fill="#0F0F0F" d="M-395,282.3h1.8l4.2,9.7h-2.4l-0.8-2.1h-3.8l-0.9,2.1h-2.3L-395,282.3z
				 M-394.1,285.1l-1.2,3h2.3L-394.1,285.1z"/>
		</g>
		<g>
			<defs>
				<rect id="SVGID_13_" x="-457" y="270.8" width="68" height="21"/>
			</defs>
			<clipPath id="SVGID_14_">
				<use xlink:href="#SVGID_13_"  overflow="visible"/>
			</clipPath>
			<rect x="-457" y="270.8" clip-path="url(#SVGID_14_)" fill="#0F0F0F" width="21" height="21"/>
		</g>
	</g>
</g>
</svg>
