<?xml version="1.0" encoding="utf-8"?>
<!-- Generator: Adobe Illustrator 19.0.0, SVG Export Plug-In . SVG Version: 6.00 Build 0)  -->
<svg version="1.1" id="Layer_1" xmlns="http://www.w3.org/2000/svg" xmlns:xlink="http://www.w3.org/1999/xlink" x="0px" y="0px"
	 viewBox="68.2 264.8 500 263.4" style="enable-background:new 68.2 264.8 500 263.4;" xml:space="preserve">
<style type="text/css">
	.st0{fill:#88271F;}
	.st1{fill:#F2EAD5;}
	.st2{fill:#1D2033;}
</style>
<g>
	<rect x="68.2" y="264.8" class="st0" width="500" height="263.4"/>
	<rect x="68.2" y="487.7" class="st1" width="500" height="20.3"/>
	<rect x="68.2" y="447.2" class="st1" width="500" height="20.3"/>
	<rect x="68.2" y="406.7" class="st1" width="500" height="20.3"/>
	<rect x="68.2" y="366.1" class="st1" width="500" height="20.3"/>
	<rect x="68.2" y="325.6" class="st1" width="500" height="20.3"/>
	<rect x="68.2" y="285.1" class="st1" width="500" height="20.3"/>
	<g>
		<rect x="68.2" y="264.8" class="st2" width="200.2" height="142"/>
		<g>
			<g>
				<polygon class="st1" points="104.5,288.3 106.1,293.2 111.2,293.2 107.2,296.3 108.7,301.1 104.5,298.1 100.4,301.1 102,296.3 
					97.8,293.2 103,293.2 				"/>
				<polygon class="st1" points="104.5,315.7 106.1,320.6 111.2,320.6 107.2,323.6 108.7,328.5 104.5,325.5 100.4,328.5 102,323.6 
					97.8,320.6 103,320.6 				"/>
				<polygon class="st1" points="104.5,343 106.1,347.9 111.2,347.9 107.2,350.9 108.7,355.8 104.5,352.9 100.4,355.8 102,350.9 
					97.8,347.9 103,347.9 				"/>
				<polygon class="st1" points="104.5,370.4 106.1,375.3 111.2,375.3 107.2,378.3 108.7,383.2 104.5,380.2 100.4,383.2 102,378.3 
					97.8,375.3 103,375.3 				"/>
			</g>
			<g>
				<polygon class="st1" points="136.5,288.3 138.1,293.2 143.2,293.2 139,296.3 140.6,301.1 136.5,298.1 132.3,301.1 133.9,296.3 
					129.7,293.2 134.9,293.2 				"/>
				<polygon class="st1" points="136.5,315.7 138.1,320.6 143.2,320.6 139,323.6 140.6,328.5 136.5,325.5 132.3,328.5 133.9,323.6 
					129.7,320.6 134.9,320.6 				"/>
				<polygon class="st1" points="136.5,343 138.1,347.9 143.2,347.9 139,350.9 140.6,355.8 136.5,352.9 132.3,355.8 133.9,350.9 
					129.7,347.9 134.9,347.9 				"/>
				<polygon class="st1" points="136.5,370.4 138.1,375.3 143.2,375.3 139,378.3 140.6,383.2 136.5,380.2 132.3,383.2 133.9,378.3 
					129.7,375.3 134.9,375.3 				"/>
			</g>
			<g>
				<polygon class="st1" points="168.3,288.3 169.9,293.2 175.1,293.2 170.9,296.3 172.5,301.1 168.3,298.1 164.2,301.1 
					165.8,296.3 161.6,293.2 166.7,293.2 				"/>
				<polygon class="st1" points="168.3,315.7 169.9,320.6 175.1,320.6 170.9,323.6 172.5,328.5 168.3,325.5 164.2,328.5 
					165.8,323.6 161.6,320.6 166.7,320.6 				"/>
				<polygon class="st1" points="168.3,343 169.9,347.9 175.1,347.9 170.9,350.9 172.5,355.8 168.3,352.9 164.2,355.8 165.8,350.9 
					161.6,347.9 166.7,347.9 				"/>
				<polygon class="st1" points="168.3,370.4 169.9,375.3 175.1,375.3 170.9,378.3 172.5,383.2 168.3,380.2 164.2,383.2 
					165.8,378.3 161.6,375.3 166.7,375.3 				"/>
			</g>
			<g>
				<polygon class="st1" points="200.2,288.3 201.8,293.2 206.9,293.2 202.8,296.3 204.4,301.1 200.2,298.1 196,301.1 197.6,296.3 
					193.5,293.2 198.6,293.2 				"/>
				<polygon class="st1" points="200.2,315.7 201.8,320.6 206.9,320.6 202.8,323.6 204.4,328.5 200.2,325.5 196,328.5 197.6,323.6 
					193.5,320.6 198.6,320.6 				"/>
				<polygon class="st1" points="200.2,343 201.8,347.9 206.9,347.9 202.8,350.9 204.4,355.8 200.2,352.9 196,355.8 197.6,350.9 
					193.5,347.9 198.6,347.9 				"/>
				<polygon class="st1" points="200.2,370.4 201.8,375.3 206.9,375.3 202.8,378.3 204.4,383.2 200.2,380.2 196,383.2 197.6,378.3 
					193.5,375.3 198.6,375.3 				"/>
			</g>
			<g>
				<polygon class="st1" points="232.1,288.3 233.7,293.2 238.9,293.2 234.7,296.3 236.3,301.1 232.1,298.1 228,301.1 229.5,296.3 
					225.4,293.2 230.5,293.2 				"/>
				<polygon class="st1" points="232.1,315.7 233.7,320.6 238.9,320.6 234.7,323.6 236.3,328.5 232.1,325.5 228,328.5 229.5,323.6 
					225.4,320.6 230.5,320.6 				"/>
				<polygon class="st1" points="232.1,343 233.7,347.9 238.9,347.9 234.7,350.9 236.3,355.8 232.1,352.9 228,355.8 229.5,350.9 
					225.4,347.9 230.5,347.9 				"/>
				<polygon class="st1" points="232.1,370.4 233.7,375.3 238.9,375.3 234.7,378.3 236.3,383.2 232.1,380.2 228,383.2 229.5,378.3 
					225.4,375.3 230.5,375.3 				"/>
			</g>
			<g>
				<polygon class="st1" points="88.6,274.6 90.2,279.5 95.3,279.5 91.1,282.6 92.7,287.5 88.6,284.4 84.4,287.5 86,282.6 
					81.9,279.5 87,279.5 				"/>
				<polygon class="st1" points="88.6,302 90.2,306.9 95.3,306.9 91.1,310 92.7,314.8 88.6,311.8 84.4,314.8 86,310 81.9,306.9 
					87,306.9 				"/>
				<polygon class="st1" points="88.6,329.4 90.2,334.3 95.3,334.3 91.1,337.3 92.7,342.1 88.6,339.2 84.4,342.1 86,337.3 
					81.9,334.3 87,334.3 				"/>
				<polygon class="st1" points="88.6,356.7 90.2,361.6 95.3,361.6 91.1,364.6 92.7,369.5 88.6,366.5 84.4,369.5 86,364.6 
					81.9,361.6 87,361.6 				"/>
				<polygon class="st1" points="88.6,384.1 90.2,389 95.3,389 91.1,392 92.7,396.9 88.6,393.9 84.4,396.9 86,392 81.9,389 87,389 
									"/>
			</g>
			<g>
				<polygon class="st1" points="120.5,274.6 122.1,279.5 127.3,279.5 123.1,282.6 124.7,287.5 120.5,284.4 116.4,287.5 
					117.9,282.6 113.8,279.5 118.9,279.5 				"/>
				<polygon class="st1" points="120.5,301.9 122.1,306.8 127.3,306.8 123.1,309.8 124.7,314.7 120.5,311.7 116.4,314.7 
					117.9,309.8 113.8,306.8 118.9,306.8 				"/>
				<polygon class="st1" points="120.5,329.6 122.1,334.5 127.3,334.5 123.1,337.5 124.7,342.4 120.5,339.3 116.4,342.4 
					117.9,337.5 113.8,334.5 118.9,334.5 				"/>
				<polygon class="st1" points="120.5,357 122.1,361.9 127.3,361.9 123.1,365 124.7,369.8 120.5,366.8 116.4,369.8 117.9,365 
					113.8,361.9 118.9,361.9 				"/>
				<polygon class="st1" points="120.5,384.1 122.1,389 127.3,389 123.1,392 124.7,396.9 120.5,393.9 116.4,396.9 117.9,392 
					113.8,389 118.9,389 				"/>
			</g>
			<g>
				<polygon class="st1" points="152.4,274.6 154,279.5 159.1,279.5 155,282.6 156.6,287.5 152.4,284.4 148.2,287.5 149.8,282.6 
					145.7,279.5 150.8,279.5 				"/>
				<polygon class="st1" points="152.4,301.9 154,306.8 159.1,306.8 155,309.8 156.6,314.7 152.4,311.7 148.2,314.7 149.8,309.8 
					145.7,306.8 150.8,306.8 				"/>
				<polygon class="st1" points="152.4,329.6 154,334.5 159.1,334.5 155,337.5 156.6,342.4 152.4,339.3 148.2,342.4 149.8,337.5 
					145.7,334.5 150.8,334.5 				"/>
				<polygon class="st1" points="152.4,357 154,361.9 159.1,361.9 155,365 156.6,369.8 152.4,366.8 148.2,369.8 149.8,365 
					145.7,361.9 150.8,361.9 				"/>
				<polygon class="st1" points="152.4,384.1 154,389 159.1,389 155,392 156.6,396.9 152.4,393.9 148.2,396.9 149.8,392 145.7,389 
					150.8,389 				"/>
			</g>
			<g>
				<polygon class="st1" points="184.3,274.6 185.9,279.5 191,279.5 186.8,282.6 188.4,287.5 184.3,284.4 180.1,287.5 181.7,282.6 
					177.5,279.5 182.7,279.5 				"/>
				<polygon class="st1" points="184.3,301.9 185.9,306.8 191,306.8 186.8,309.8 188.4,314.7 184.3,311.7 180.1,314.7 181.7,309.8 
					177.5,306.8 182.7,306.8 				"/>
				<polygon class="st1" points="184.3,329.6 185.9,334.5 191,334.5 186.8,337.5 188.4,342.4 184.3,339.3 180.1,342.4 181.7,337.5 
					177.5,334.5 182.7,334.5 				"/>
				<polygon class="st1" points="184.3,357 185.9,361.9 191,361.9 186.8,365 188.4,369.8 184.3,366.8 180.1,369.8 181.7,365 
					177.5,361.9 182.7,361.9 				"/>
				<polygon class="st1" points="184.3,384.1 185.9,389 191,389 186.8,392 188.4,396.9 184.3,393.9 180.1,396.9 181.7,392 
					177.5,389 182.7,389 				"/>
			</g>
			<g>
				<polygon class="st1" points="216.1,274.6 217.7,279.5 222.9,279.5 218.8,282.6 220.3,287.5 216.1,284.4 212,287.5 213.6,282.6 
					209.4,279.5 214.6,279.5 				"/>
				<polygon class="st1" points="216.1,301.9 217.7,306.8 222.9,306.8 218.8,309.8 220.3,314.7 216.1,311.7 212,314.7 213.6,309.8 
					209.4,306.8 214.6,306.8 				"/>
				<polygon class="st1" points="216.1,329.6 217.7,334.5 222.9,334.5 218.8,337.5 220.3,342.4 216.1,339.3 212,342.4 213.6,337.5 
					209.4,334.5 214.6,334.5 				"/>
				<polygon class="st1" points="216.1,357 217.7,361.9 222.9,361.9 218.8,365 220.3,369.8 216.1,366.8 212,369.8 213.6,365 
					209.4,361.9 214.6,361.9 				"/>
				<polygon class="st1" points="216.1,384.1 217.7,389 222.9,389 218.8,392 220.3,396.9 216.1,393.9 212,396.9 213.6,392 
					209.4,389 214.6,389 				"/>
			</g>
			<g>
				<polygon class="st1" points="248.1,274.6 249.7,279.5 254.8,279.5 250.6,282.6 252.2,287.5 248.1,284.4 243.9,287.5 
					245.5,282.6 241.3,279.5 246.5,279.5 				"/>
				<polygon class="st1" points="248.1,301.9 249.7,306.8 254.8,306.8 250.6,309.8 252.2,314.7 248.1,311.7 243.9,314.7 
					245.5,309.8 241.3,306.8 246.5,306.8 				"/>
				<polygon class="st1" points="248.1,329.6 249.7,334.5 254.8,334.5 250.6,337.5 252.2,342.4 248.1,339.3 243.9,342.4 
					245.5,337.5 241.3,334.5 246.5,334.5 				"/>
				<polygon class="st1" points="248.1,357 249.7,361.9 254.8,361.9 250.6,365 252.2,369.8 248.1,366.8 243.9,369.8 245.5,365 
					241.3,361.9 246.5,361.9 				"/>
				<polygon class="st1" points="248.1,384.1 249.7,389 254.8,389 250.6,392 252.2,396.9 248.1,393.9 243.9,396.9 245.5,392 
					241.3,389 246.5,389 				"/>
			</g>
		</g>
	</g>
</g>
</svg>
