<?xml version="1.0" encoding="utf-8"?>
<!-- Generator: Adobe Illustrator 18.1.1, SVG Export Plug-In . SVG Version: 6.00 Build 0)  -->
<svg version="1.1" id="Layer_1" xmlns="http://www.w3.org/2000/svg" xmlns:xlink="http://www.w3.org/1999/xlink" x="0px" y="0px"
	 width="20px" height="16.1px" viewBox="-469 272.9 20 16.1" enable-background="new -469 272.9 20 16.1" xml:space="preserve">
<path id="twitter-icon" fill="#FFFFFF" d="M-449,274.9c-0.7,0.3-1.5,0.5-2.4,0.6c0.8-0.5,1.5-1.3,1.8-2.3c-0.8,0.5-1.7,0.8-2.6,1
	c-0.7-0.8-1.8-1.3-3-1.3c-2.7,0-4.6,2.5-4,5c-3.4-0.2-6.3-1.8-8.4-4.3c-1.1,1.8-0.6,4.3,1.3,5.4c-0.7,0-1.3-0.2-1.9-0.5
	c0,1.9,1.3,3.7,3.3,4.1c-0.6,0.2-1.2,0.2-1.9,0.1c0.5,1.6,2,2.8,3.8,2.9c-1.7,1.4-3.9,2-6,1.7c1.8,1.2,4,1.8,6.2,1.8
	c7.5,0,11.8-6.3,11.6-12.1C-450.2,276.5-449.5,275.8-449,274.9z"/>
</svg>
