<?xml version="1.0" encoding="utf-8"?>
<!-- Generator: Adobe Illustrator 18.1.1, SVG Export Plug-In . SVG Version: 6.00 Build 0)  -->
<svg version="1.1" id="Layer_1" xmlns="http://www.w3.org/2000/svg" xmlns:xlink="http://www.w3.org/1999/xlink" x="0px" y="0px"
	 width="19.3px" height="15.6px" viewBox="-468.6 273.2 19.3 15.6" enable-background="new -468.6 273.2 19.3 15.6"
	 xml:space="preserve">
<path id="twitter-icon" fill="#0082CA" d="M-449.4,275.1c-0.7,0.3-1.4,0.5-2.3,0.6c0.8-0.5,1.4-1.2,1.7-2.2c-0.8,0.5-1.6,0.8-2.5,1
	c-0.7-0.8-1.7-1.2-2.9-1.2c-2.6,0-4.4,2.4-3.8,4.8c-3.2-0.2-6.1-1.7-8.1-4.1c-1,1.7-0.6,4.1,1.2,5.2c-0.7,0-1.2-0.2-1.8-0.5
	c0,1.8,1.2,3.5,3.1,3.9c-0.6,0.2-1.1,0.2-1.8,0.1c0.5,1.5,1.9,2.7,3.6,2.8c-1.6,1.3-3.7,1.9-5.8,1.6c1.7,1.1,3.8,1.7,6,1.7
	c7.3,0,11.4-6.1,11.2-11.6C-450.5,276.7-449.8,276-449.4,275.1z"/>
</svg>
