<?xml version="1.0" encoding="utf-8"?><svg width="147" height="146" viewBox="0 0 147 146" xmlns="http://www.w3.org/2000/svg" xmlns:xlink="http://www.w3.org/1999/xlink"><svg width="17" height="25.6" viewBox="-479 268.2 17 25.6" enable-background="new -474 273.2 7 15.6" id="facebook" x="128.5" y="74.9"><path fill="#0082CA" d="M-467 278.2h-2.2V277c0-.6.5-.9.9-.9h1.2v-2.9h-2.3c-2.5 0-3.2 2-3.2 3.3v1.7h-1.4v2.8h1.4v7.8h3.5V281h1.7l.4-2.8z"/></svg><svg width="19" height="30" viewBox="-480 266 19 30" enable-background="new -475 271 9 20" id="facebook_alt" x="109.5" y="74.9"><path fill="#fff" d="M-466 277.4h-2.8v-1.5c0-.8.7-1.2 1.1-1.2h1.6V271h-3c-3.2 0-4.1 2.6-4.1 4.2v2.2h-1.8v3.6h1.8v10h4.5v-10h2.2l.5-3.6z"/></svg><svg width="41.5" height="40" viewBox="-5 -5 41.5 40" id="icon_ball" x="34" y="74.9"><path fill="#E8E8E8" d="M16.5 30c8.3 0 15-6.7 15-15s-6.7-15-15-15l-1.1 1.1v28.5l1.1.4"/><path fill="#fff" d="M16.5 0c-8.3 0-15 6.7-15 15s6.7 15 15 15"/><path fill="#111" d="M4.2 6.4L5 8.1h6.8l2-6.2L12.2.6c-3.2 1-6 3.1-8 5.8"/><path fill="#111" d="M1.6 14.6v.4c0 3.2 1 6.2 2.8 8.7h2.4l2-6.2-5.5-4-1.7 1.1zM19.9 10.3H13.2l-2 6.3 5.3 4 5.4-4zM28.8 6.4L28 8.1h-6.8l-2-6.2L20.8.6c3.3 1 6.1 3.1 8 5.8"/><path fill="#111" d="M31.5 14.6v.4c0 3.2-1 6.2-2.8 8.7h-2.4l-2-6.2 5.5-4 1.7 1.1zM21.9 27.2l-5.4-4-5.4 4 .8 2.1c1.4.5 3 .7 4.6.7 1.6 0 3.1-.3 4.6-.7l.8-2.1z"/></svg><svg width="34" height="34" viewBox="-5 -5 34 34" id="icon_info" x="75.5" y="74.9"><path fill="#0082CA" d="M12 24C5.4 24 0 18.6 0 12S5.4 0 12 0s12 5.4 12 12-5.4 12-12 12zm0-22C6.5 2 2 6.5 2 12s4.5 10 10 10 10-4.5 10-10S17.5 2 12 2zM11 18c-.4 0-.7-.2-1-.5-.5-.7-.1-1.7 1-4.4.2-.4.4-.9.6-1.3-.4.3-1 .3-1.4-.1-.4-.4-.4-1 0-1.4.2-.1 1.4-1.3 2.8-1.3.4 0 .7.2 1 .5.5.7.1 1.7-1 4.4-.2.4-.4.9-.6 1.3.4-.3 1-.3 1.4.1.4.4.4 1 0 1.4-.2.1-1.4 1.3-2.8 1.3zM15 6.5c0 .8-.7 1.5-1.5 1.5S12 7.3 12 6.5 12.7 5 13.5 5s1.5.7 1.5 1.5"/></svg><svg width="34" height="44.2" viewBox="-5 -5 34 44.2" id="icon_shield" y="74.9"><path fill="#1382C5" d="M12 0S7.2 2.4 0 3.4v12.7h24V3.4C16.8 2.4 12 0 12 0z"/><path fill="#fff" d="M24 20.4V16H0v4.4s-.6 9.4 12 13.8c12.6-4.4 12-13.8 12-13.8z"/><path fill="#E42F29" d="M9.6 33.2c.7.3 1.5.7 2.4 1 .9-.3 1.7-.6 2.4-1V16.1H9.6v17.1z"/><path fill="#E42F29" d="M4.8 30.2V16.1H0V21c0 1.3.6 5.5 4.8 9.2z"/><path fill="#E42F29" d="M19.2 30.2V16.1H24V21c-.1 1.3-.6 5.5-4.8 9.2z"/><path fill="#fff" d="M12 3.8l1.5 3 3.3.5-2.4 2.3.6 3.4-3-1.6L9 13l.6-3.4-2.4-2.3 3.3-.5z"/></svg><svg width="66.3" height="27.3" viewBox="-5 -5 66.3 27.3" id="logo_nji" x="80"><path fill="#99A4AE" d="M26.9 0v5.5h-.1L23.5 0h-2.4v8h1.7V2.3h.1L26.3 8h2.3V0z"/><defs><path id="fa" d="M0 0h56v17.3H0z"/></defs><clipPath id="fb"><use xlink:href="#fa" overflow="visible"/></clipPath><path clip-path="url(#fb)" fill="#99A4AE" d="M34.1 5.3c0 1.5-.4 2.9-2.5 2.9-1.3 0-2.2-.6-2.4-1.9l1.6-.4c0 .4.4.7.8.7.8 0 .8-.9.8-1.5V0h1.8v5.3zM35 0h1.8v8H35zM21.1 9.4h2.6l1.9 5.2 1.8-5.2h2.7v7.9h-1.8v-6.1l-2.1 6.1h-1.3l-2-6.1h-.1v6.1h-1.7zM31.1 9.4h5.4V11h-3.7v1.5h3.5v1.6h-3.5v1.6h3.9v1.6h-5.6zM37.6 9.4h2.6c2.6 0 4.7 1.1 4.7 4 0 2.6-2.1 4-4.5 4h-2.9v-8zm1.8 6.3h.9c1.6 0 2.9-.6 2.9-2.4 0-1.6-1.2-2.3-2.7-2.3h-1v4.7zM45.6 9.4h1.8v8h-1.8zM51.1 9.4h1.5l3.5 8h-2l-.7-1.7h-3.1l-.7 1.7h-1.9l3.4-8zm.7 2.3l-1 2.5h1.9l-.9-2.5z"/><path clip-path="url(#fb)" fill="#0082CA" d="M0 0h17.3v17.3H0z"/></svg><svg width="78" height="31" viewBox="-462 265.8 78 31" enable-background="new -457 270.8 68 21" id="logo_nji_alt" y="43.9"><path fill="#0F0F0F" d="M-424.3 270.8v6.7h-.2l-4-6.7h-2.9v9.8h2.1v-7h.1l4.1 7h2.8v-9.8z"/><defs><path id="ga" d="M-457 270.8h68v21h-68z"/></defs><clipPath id="gb"><use xlink:href="#ga" overflow="visible"/></clipPath><path clip-path="url(#gb)" fill="#0F0F0F" d="M-415.5 277.3c0 1.8-.6 3.5-3.2 3.5-1.6 0-2.7-.7-2.9-2.3l1.9-.5c0 .5.5.9 1 .9 1 0 1-1.1 1-1.8v-6.2h2.2v6.4z"/><path fill="none" d="M-457 270.8h68v21h-68z"/><path fill="#0F0F0F" d="M-414.5 270.8h2.2v9.7h-2.2z"/><defs><path id="gc" d="M-457 270.8h68v21h-68z"/></defs><clipPath id="gd"><use xlink:href="#gc" overflow="visible"/></clipPath><path clip-path="url(#gd)" fill="#0F0F0F" d="M-431.4 282.3h3.2l2.3 6.3 2.2-6.3h3.2v9.6h-2.1v-7.5l-2.6 7.5h-1.6l-2.4-7.5h-.1v7.5h-2.1z"/><defs><path id="ge" d="M-457 270.8h68v21h-68z"/></defs><clipPath id="gf"><use xlink:href="#ge" overflow="visible"/></clipPath><path clip-path="url(#gf)" fill="#0F0F0F" d="M-419.2 282.3h6.5v1.9h-4.5v1.8h4.3v2h-4.3v1.9h4.8v2h-6.8z"/><defs><path id="gg" d="M-457 270.8h68v21h-68z"/></defs><clipPath id="gh"><use xlink:href="#gg" overflow="visible"/></clipPath><path clip-path="url(#gh)" fill="#0F0F0F" d="M-411.3 282.3h3.2c3.2 0 5.7 1.3 5.7 4.9 0 3.2-2.5 4.9-5.5 4.9h-3.5v-9.7h.1zm2.1 7.6h1.1c1.9 0 3.5-.7 3.5-2.9 0-1.9-1.5-2.8-3.3-2.8h-1.2v5.7h-.1z"/><defs><path id="gi" d="M-457 270.8h68v21h-68z"/></defs><clipPath id="gj"><use xlink:href="#gi" overflow="visible"/></clipPath><path clip-path="url(#gj)" fill="#0F0F0F" d="M-401.6 282.3h2.2v9.7h-2.2z"/><defs><path id="gk" d="M-457 270.8h68v21h-68z"/></defs><clipPath id="gl"><use xlink:href="#gk" overflow="visible"/></clipPath><path clip-path="url(#gl)" fill="#0F0F0F" d="M-395 282.3h1.8l4.2 9.7h-2.4l-.8-2.1h-3.8l-.9 2.1h-2.3l4.2-9.7zm.9 2.8l-1.2 3h2.3l-1.1-3z"/><defs><path id="gm" d="M-457 270.8h68v21h-68z"/></defs><clipPath id="gn"><use xlink:href="#gm" overflow="visible"/></clipPath><path clip-path="url(#gn)" fill="#0F0F0F" d="M-457 270.8h21v21h-21z"/></svg><svg width="80" height="43.9" viewBox="-5 -5 80 43.9" id="logo_shultz_division"><path fill="#111" d="M.8 15.8H70v2.3H.8z"/><defs><path id="ha" d="M0 0h70v33.9H0z"/></defs><clipPath id="hb"><use xlink:href="#ha" overflow="visible"/></clipPath><path clip-path="url(#hb)" fill="#111" d="M8.9 24.5c1 .9 1.5 2.2 1.5 3.9 0 1.7-.5 3-1.5 3.9-1 1-2.5 1.4-4.5 1.4H.8V23.1h3.8c1.8 0 3.3.5 4.3 1.4m-1.8 6.4c.6-.6.9-1.4.9-2.4s-.3-1.8-.9-2.4c-.6-.6-1.5-.8-2.7-.8H3.1v6.5h1.5c1.1-.1 2-.4 2.5-.9"/><path clip-path="url(#hb)" fill="#111" d="M12.5 23.1h2.4v10.6h-2.4zM21.6 29.9l2.8-6.8h2.5l-4.3 10.7h-2l-4.2-10.7h2.5zM28.4 23.1h2.4v10.6h-2.4zM35.7 25.3c-.2.2-.3.4-.3.7s.1.6.4.7c.3.2.9.4 1.9.6s1.8.6 2.4 1.1c.6.5.8 1.2.8 2.2s-.4 1.7-1.1 2.3c-.7.6-1.7.9-2.8.9-1.7 0-3.2-.6-4.6-1.9l1.4-1.7c1.1 1 2.2 1.5 3.2 1.5.4 0 .8-.1 1-.3.2-.2.4-.4.4-.8s-.1-.6-.4-.8c-.3-.2-.8-.4-1.6-.6-1.2-.3-2.1-.7-2.7-1.1-.6-.5-.9-1.2-.9-2.2s.4-1.8 1.1-2.3c.7-.5 1.6-.8 2.7-.8.7 0 1.4.1 2.1.4.7.2 1.3.6 1.9 1L39.5 26c-.9-.7-1.9-1-2.9-1-.3 0-.7.1-.9.3"/><path clip-path="url(#hb)" fill="#111" d="M43 23.1h2.4v10.6H43zM56.9 32.3c-1.1 1-2.4 1.6-4 1.6s-2.9-.5-4-1.6-1.6-2.4-1.6-3.9c0-1.6.5-2.9 1.6-3.9s2.4-1.6 4-1.6 2.9.5 4 1.6 1.6 2.4 1.6 3.9c0 1.6-.5 2.9-1.6 3.9m-.8-3.9c0-.9-.3-1.8-.9-2.4-.6-.7-1.4-1-2.2-1-.9 0-1.6.3-2.2 1-.6.7-.9 1.5-.9 2.4 0 .9.3 1.8.9 2.4.6.7 1.4 1 2.2 1 .9 0 1.6-.3 2.2-1 .6-.6.9-1.5.9-2.4"/><path clip-path="url(#hb)" fill="#111" d="M67.6 23.1H70v10.7h-2.4l-5-6.7v6.7h-2.4V23.1h2.2l5.2 6.9z"/><path clip-path="url(#hb)" fill="#0082CA" d="M59.3.2H70v10.7H59.3z"/><path clip-path="url(#hb)" d="M0 9.3l1.2-1.7C2 8.4 3.1 9 4.6 9c1.2 0 1.9-.6 1.9-1.2C6.5 5.9.4 7.2.4 3.2.4 1.4 1.9 0 4.4 0c1.7 0 3.1.5 4.2 1.5L7.3 3.1C6.4 2.3 5.3 2 4.2 2c-1 0-1.5.4-1.5 1.1 0 1.7 6.1.6 6.1 4.5 0 1.9-1.4 3.4-4.3 3.4-2 0-3.5-.7-4.5-1.7"/><path clip-path="url(#hb)" d="M17.6 10.8V6.3h-5v4.5h-2.3V.2h2.3v4.1h5V.2h2.3v10.6zM22 6.6V.2h2.3v6.3c0 1.5.8 2.5 2.5 2.5 1.6 0 2.5-1 2.5-2.5V.2h2.3v6.4c0 2.7-1.6 4.5-4.8 4.5S22 9.2 22 6.6"/><path clip-path="url(#hb)" d="M33.7 10.8V.2H36v8.6h4.5v2zM42.9 10.8V2.2h-3.1v-2h8.5v2h-3.1v8.6zM49.4 10.8V9l5-6.8h-5v-2h8V2l-5.1 6.8h5.2v2z"/></svg><svg width="66" height="37.1" viewBox="-442 262.5 66 37.1" enable-background="new -437 267.5 56 27.1" id="logo_shultz_division_alt" x="80" y="27.3"><path fill="#0F0F0F" d="M-436.4 280.1h55.4v1.8h-55.4z"/><defs><path id="ia" d="M-437 267.5h56v27.1h-56z"/></defs><clipPath id="ib"><use xlink:href="#ia" overflow="visible"/></clipPath><path clip-path="url(#ib)" fill="#111" d="M-429.9 287.1c.8.7 1.2 1.8 1.2 3.1 0 1.4-.4 2.4-1.2 3.1-.8.8-2 1.1-3.6 1.1h-2.9V286h3c1.5 0 2.7.4 3.5 1.1m-1.4 5.1c.5-.5.7-1.1.7-1.9 0-.8-.2-1.4-.7-1.9-.5-.5-1.2-.6-2.2-.6h-1v5.2h1.2c.9-.2 1.6-.4 2-.8"/><defs><path id="ic" d="M-437 267.5h56v27.1h-56z"/></defs><clipPath id="id"><use xlink:href="#ic" overflow="visible"/></clipPath><path clip-path="url(#id)" fill="#111" d="M-427 286h1.9v8.5h-1.9z"/><defs><path id="ie" d="M-437 267.5h56v27.1h-56z"/></defs><clipPath id="if"><use xlink:href="#ie" overflow="visible"/></clipPath><path clip-path="url(#if)" fill="#111" d="M-419.7 291.4l2.2-5.4h2l-3.4 8.5h-1.6l-3.4-8.5h2z"/><defs><path id="ig" d="M-437 267.5h56v27.1h-56z"/></defs><clipPath id="ih"><use xlink:href="#ig" overflow="visible"/></clipPath><path clip-path="url(#ih)" fill="#111" d="M-414.3 286h1.9v8.5h-1.9z"/><defs><path id="ii" d="M-437 267.5h56v27.1h-56z"/></defs><clipPath id="ij"><use xlink:href="#ii" overflow="visible"/></clipPath><path clip-path="url(#ij)" fill="#111" d="M-408.4 287.7c-.2.2-.2.3-.2.6 0 .2.1.5.3.6.2.2.7.3 1.5.5s1.4.5 1.9.9.6 1 .6 1.8-.3 1.4-.9 1.8c-.6.5-1.4.7-2.2.7-1.4 0-2.6-.5-3.7-1.5l1.1-1.4c.9.8 1.8 1.2 2.6 1.2.3 0 .6-.1.8-.2.2-.2.3-.3.3-.6s-.1-.5-.3-.6c-.2-.2-.6-.3-1.3-.5-1-.2-1.7-.6-2.2-.9-.5-.4-.7-1-.7-1.8s.3-1.4.9-1.8 1.3-.6 2.2-.6c.6 0 1.1.1 1.7.3.6.2 1 .5 1.5.8l-.9 1.4c-.7-.6-1.5-.8-2.3-.8-.3-.1-.6 0-.7.1"/><defs><path id="ik" d="M-437 267.5h56v27.1h-56z"/></defs><clipPath id="il"><use xlink:href="#ik" overflow="visible"/></clipPath><path clip-path="url(#il)" fill="#111" d="M-402.6 286h1.9v8.5h-1.9z"/><defs><path id="im" d="M-437 267.5h56v27.1h-56z"/></defs><clipPath id="in"><use xlink:href="#im" overflow="visible"/></clipPath><path clip-path="url(#in)" fill="#111" d="M-391.5 293.3c-.9.8-1.9 1.3-3.2 1.3s-2.3-.4-3.2-1.3-1.3-1.9-1.3-3.1c0-1.3.4-2.3 1.3-3.1.9-.8 1.9-1.3 3.2-1.3s2.3.4 3.2 1.3c.9.9 1.3 1.9 1.3 3.1 0 1.3-.4 2.3-1.3 3.1m-.6-3.1c0-.7-.2-1.4-.7-1.9-.5-.6-1.1-.8-1.8-.8s-1.3.2-1.8.8c-.5.6-.7 1.2-.7 1.9s.2 1.4.7 1.9c.5.6 1.1.8 1.8.8s1.3-.2 1.8-.8c.4-.5.7-1.2.7-1.9"/><defs><path id="io" d="M-437 267.5h56v27.1h-56z"/></defs><clipPath id="ip"><use xlink:href="#io" overflow="visible"/></clipPath><path clip-path="url(#ip)" fill="#111" d="M-382.9 286h1.9v8.5h-1.9l-4-5.3v5.3h-1.9V286h1.7l4.2 5.5z"/><defs><path id="iq" d="M-437 267.5h56v27.1h-56z"/></defs><clipPath id="ir"><use xlink:href="#iq" overflow="visible"/></clipPath><path clip-path="url(#ir)" fill="#0F0F0F" d="M-389.6 267.6h8.6v8.6h-8.6z"/><defs><path id="is" d="M-437 267.5h56v27.1h-56z"/></defs><clipPath id="it"><use xlink:href="#is" overflow="visible"/></clipPath><path clip-path="url(#it)" d="M-437 274.9l1-1.4c.6.6 1.5 1.1 2.7 1.1 1 0 1.5-.5 1.5-1 0-1.5-4.9-.5-4.9-3.7 0-1.4 1.2-2.6 3.2-2.6 1.4 0 2.5.4 3.4 1.2l-1 1.3c-.7-.6-1.6-.9-2.5-.9-.8 0-1.2.3-1.2.9 0 1.4 4.9.5 4.9 3.6 0 1.5-1.1 2.7-3.4 2.7-1.7.2-2.9-.4-3.7-1.2"/><defs><path id="iu" d="M-437 267.5h56v27.1h-56z"/></defs><clipPath id="iv"><use xlink:href="#iu" overflow="visible"/></clipPath><path clip-path="url(#iv)" d="M-422.9 276.1v-3.6h-4v3.6h-1.9v-8.5h1.9v3.3h4v-3.3h1.8v8.5z"/><defs><path id="iw" d="M-437 267.5h56v27.1h-56z"/></defs><clipPath id="ix"><use xlink:href="#iw" overflow="visible"/></clipPath><path clip-path="url(#ix)" d="M-419.4 272.8v-5.1h1.8v5c0 1.2.6 2 2 2 1.3 0 2-.8 2-2v-5h1.8v5.1c0 2.2-1.3 3.6-3.8 3.6s-3.8-1.6-3.8-3.6"/><defs><path id="iy" d="M-437 267.5h56v27.1h-56z"/></defs><clipPath id="iz"><use xlink:href="#iy" overflow="visible"/></clipPath><path clip-path="url(#iz)" d="M-410 276.1v-8.5h1.8v6.9h3.6v1.6z"/><defs><path id="iA" d="M-437 267.5h56v27.1h-56z"/></defs><clipPath id="iB"><use xlink:href="#iA" overflow="visible"/></clipPath><path clip-path="url(#iB)" d="M-402.7 276.1v-6.9h-2.5v-1.6h6.8v1.6h-2.4v6.9z"/><defs><path id="iC" d="M-437 267.5h56v27.1h-56z"/></defs><clipPath id="iD"><use xlink:href="#iC" overflow="visible"/></clipPath><path clip-path="url(#iD)" d="M-397.5 276.1v-1.4l4-5.5h-4v-1.6h6.4v1.5l-4.1 5.4h4.2v1.6z"/></svg><svg width="29.3" height="25.6" viewBox="-473.6 268.2 29.3 25.6" enable-background="new -468.6 273.2 19.3 15.6" id="twitter" x="30" y="119.10000000000001"><path fill="#0082CA" d="M-449.4 275.1c-.7.3-1.4.5-2.3.6.8-.5 1.4-1.2 1.7-2.2-.8.5-1.6.8-2.5 1-.7-.8-1.7-1.2-2.9-1.2-2.6 0-4.4 2.4-3.8 4.8-3.2-.2-6.1-1.7-8.1-4.1-1 1.7-.6 4.1 1.2 5.2-.7 0-1.2-.2-1.8-.5 0 1.8 1.2 3.5 3.1 3.9-.6.2-1.1.2-1.8.1.5 1.5 1.9 2.7 3.6 2.8-1.6 1.3-3.7 1.9-5.8 1.6 1.7 1.1 3.8 1.7 6 1.7 7.3 0 11.4-6.1 11.2-11.6 1.1-.5 1.8-1.2 2.2-2.1z"/></svg><svg width="30" height="26.1" viewBox="-474 267.9 30 26.1" enable-background="new -469 272.9 20 16.1" id="twitter_alt" y="119.10000000000001"><path fill="#fff" d="M-449 274.9c-.7.3-1.5.5-2.4.6.8-.5 1.5-1.3 1.8-2.3-.8.5-1.7.8-2.6 1-.7-.8-1.8-1.3-3-1.3-2.7 0-4.6 2.5-4 5-3.4-.2-6.3-1.8-8.4-4.3-1.1 1.8-.6 4.3 1.3 5.4-.7 0-1.3-.2-1.9-.5 0 1.9 1.3 3.7 3.3 4.1-.6.2-1.2.2-1.9.1.5 1.6 2 2.8 3.8 2.9-1.7 1.4-3.9 2-6 1.7 1.8 1.2 4 1.8 6.2 1.8 7.5 0 11.8-6.3 11.6-12.1 1-.5 1.7-1.2 2.2-2.1z"/></svg></svg>