<?xml version="1.0" encoding="utf-8"?><svg width="114" height="97" viewBox="0 0 114 97" xmlns="http://www.w3.org/2000/svg" xmlns:xlink="http://www.w3.org/1999/xlink"><svg width="17" height="25.6" viewBox="-479 268.2 17 25.6" enable-background="new -474 273.2 7 15.6" id="facebook" y="71.2"><path fill="#0082CA" d="M-467 278.2h-2.2V277c0-.6.5-.9.9-.9h1.2v-2.9h-2.3c-2.5 0-3.2 2-3.2 3.3v1.7h-1.4v2.8h1.4v7.8h3.5V281h1.7l.4-2.8z"/></svg><svg width="34" height="34" viewBox="-5 -5 34 34" id="icon_info" x="80"><path fill="#0082CA" d="M12 24C5.4 24 0 18.6 0 12S5.4 0 12 0s12 5.4 12 12-5.4 12-12 12zm0-22C6.5 2 2 6.5 2 12s4.5 10 10 10 10-4.5 10-10S17.5 2 12 2zM11 18c-.4 0-.7-.2-1-.5-.5-.7-.1-1.7 1-4.4.2-.4.4-.9.6-1.3-.4.3-1 .3-1.4-.1-.4-.4-.4-1 0-1.4.2-.1 1.4-1.3 2.8-1.3.4 0 .7.2 1 .5.5.7.1 1.7-1 4.4-.2.4-.4.9-.6 1.3.4-.3 1-.3 1.4.1.4.4.4 1 0 1.4-.2.1-1.4 1.3-2.8 1.3zM15 6.5c0 .8-.7 1.5-1.5 1.5S12 7.3 12 6.5 12.7 5 13.5 5s1.5.7 1.5 1.5"/></svg><svg width="66.3" height="27.3" viewBox="-5 -5 66.3 27.3" id="logo_nji" y="43.9"><path fill="#99A4AE" d="M26.9 0v5.5h-.1L23.5 0h-2.4v8h1.7V2.3h.1L26.3 8h2.3V0z"/><defs><path id="ca" d="M0 0h56v17.3H0z"/></defs><clipPath id="cb"><use xlink:href="#ca" overflow="visible"/></clipPath><path clip-path="url(#cb)" fill="#99A4AE" d="M34.1 5.3c0 1.5-.4 2.9-2.5 2.9-1.3 0-2.2-.6-2.4-1.9l1.6-.4c0 .4.4.7.8.7.8 0 .8-.9.8-1.5V0h1.8v5.3zM35 0h1.8v8H35zM21.1 9.4h2.6l1.9 5.2 1.8-5.2h2.7v7.9h-1.8v-6.1l-2.1 6.1h-1.3l-2-6.1h-.1v6.1h-1.7zM31.1 9.4h5.4V11h-3.7v1.5h3.5v1.6h-3.5v1.6h3.9v1.6h-5.6zM37.6 9.4h2.6c2.6 0 4.7 1.1 4.7 4 0 2.6-2.1 4-4.5 4h-2.9v-8zm1.8 6.3h.9c1.6 0 2.9-.6 2.9-2.4 0-1.6-1.2-2.3-2.7-2.3h-1v4.7zM45.6 9.4h1.8v8h-1.8zM51.1 9.4h1.5l3.5 8h-2l-.7-1.7h-3.1l-.7 1.7h-1.9l3.4-8zm.7 2.3l-1 2.5h1.9l-.9-2.5z"/><path clip-path="url(#cb)" fill="#0082CA" d="M0 0h17.3v17.3H0z"/></svg><svg width="80" height="43.9" viewBox="-5 -5 80 43.9" id="logo_shultz_division"><path fill="#111" d="M.8 15.8H70v2.3H.8z"/><defs><path id="da" d="M0 0h70v33.9H0z"/></defs><clipPath id="db"><use xlink:href="#da" overflow="visible"/></clipPath><path clip-path="url(#db)" fill="#111" d="M8.9 24.5c1 .9 1.5 2.2 1.5 3.9 0 1.7-.5 3-1.5 3.9-1 1-2.5 1.4-4.5 1.4H.8V23.1h3.8c1.8 0 3.3.5 4.3 1.4m-1.8 6.4c.6-.6.9-1.4.9-2.4s-.3-1.8-.9-2.4c-.6-.6-1.5-.8-2.7-.8H3.1v6.5h1.5c1.1-.1 2-.4 2.5-.9"/><path clip-path="url(#db)" fill="#111" d="M12.5 23.1h2.4v10.6h-2.4zM21.6 29.9l2.8-6.8h2.5l-4.3 10.7h-2l-4.2-10.7h2.5zM28.4 23.1h2.4v10.6h-2.4zM35.7 25.3c-.2.2-.3.4-.3.7s.1.6.4.7c.3.2.9.4 1.9.6s1.8.6 2.4 1.1c.6.5.8 1.2.8 2.2s-.4 1.7-1.1 2.3c-.7.6-1.7.9-2.8.9-1.7 0-3.2-.6-4.6-1.9l1.4-1.7c1.1 1 2.2 1.5 3.2 1.5.4 0 .8-.1 1-.3.2-.2.4-.4.4-.8s-.1-.6-.4-.8c-.3-.2-.8-.4-1.6-.6-1.2-.3-2.1-.7-2.7-1.1-.6-.5-.9-1.2-.9-2.2s.4-1.8 1.1-2.3c.7-.5 1.6-.8 2.7-.8.7 0 1.4.1 2.1.4.7.2 1.3.6 1.9 1L39.5 26c-.9-.7-1.9-1-2.9-1-.3 0-.7.1-.9.3"/><path clip-path="url(#db)" fill="#111" d="M43 23.1h2.4v10.6H43zM56.9 32.3c-1.1 1-2.4 1.6-4 1.6s-2.9-.5-4-1.6-1.6-2.4-1.6-3.9c0-1.6.5-2.9 1.6-3.9s2.4-1.6 4-1.6 2.9.5 4 1.6 1.6 2.4 1.6 3.9c0 1.6-.5 2.9-1.6 3.9m-.8-3.9c0-.9-.3-1.8-.9-2.4-.6-.7-1.4-1-2.2-1-.9 0-1.6.3-2.2 1-.6.7-.9 1.5-.9 2.4 0 .9.3 1.8.9 2.4.6.7 1.4 1 2.2 1 .9 0 1.6-.3 2.2-1 .6-.6.9-1.5.9-2.4"/><path clip-path="url(#db)" fill="#111" d="M67.6 23.1H70v10.7h-2.4l-5-6.7v6.7h-2.4V23.1h2.2l5.2 6.9z"/><path clip-path="url(#db)" fill="#0082CA" d="M59.3.2H70v10.7H59.3z"/><path clip-path="url(#db)" d="M0 9.3l1.2-1.7C2 8.4 3.1 9 4.6 9c1.2 0 1.9-.6 1.9-1.2C6.5 5.9.4 7.2.4 3.2.4 1.4 1.9 0 4.4 0c1.7 0 3.1.5 4.2 1.5L7.3 3.1C6.4 2.3 5.3 2 4.2 2c-1 0-1.5.4-1.5 1.1 0 1.7 6.1.6 6.1 4.5 0 1.9-1.4 3.4-4.3 3.4-2 0-3.5-.7-4.5-1.7"/><path clip-path="url(#db)" d="M17.6 10.8V6.3h-5v4.5h-2.3V.2h2.3v4.1h5V.2h2.3v10.6zM22 6.6V.2h2.3v6.3c0 1.5.8 2.5 2.5 2.5 1.6 0 2.5-1 2.5-2.5V.2h2.3v6.4c0 2.7-1.6 4.5-4.8 4.5S22 9.2 22 6.6"/><path clip-path="url(#db)" d="M33.7 10.8V.2H36v8.6h4.5v2zM42.9 10.8V2.2h-3.1v-2h8.5v2h-3.1v8.6zM49.4 10.8V9l5-6.8h-5v-2h8V2l-5.1 6.8h5.2v2z"/></svg><svg width="29.3" height="25.6" viewBox="-473.6 268.2 29.3 25.6" enable-background="new -468.6 273.2 19.3 15.6" id="twitter" x="80" y="34"><path fill="#0082CA" d="M-449.4 275.1c-.7.3-1.4.5-2.3.6.8-.5 1.4-1.2 1.7-2.2-.8.5-1.6.8-2.5 1-.7-.8-1.7-1.2-2.9-1.2-2.6 0-4.4 2.4-3.8 4.8-3.2-.2-6.1-1.7-8.1-4.1-1 1.7-.6 4.1 1.2 5.2-.7 0-1.2-.2-1.8-.5 0 1.8 1.2 3.5 3.1 3.9-.6.2-1.1.2-1.8.1.5 1.5 1.9 2.7 3.6 2.8-1.6 1.3-3.7 1.9-5.8 1.6 1.7 1.1 3.8 1.7 6 1.7 7.3 0 11.4-6.1 11.2-11.6 1.1-.5 1.8-1.2 2.2-2.1z"/></svg></svg>