<?xml version="1.0" encoding="utf-8"?><!DOCTYPE svg PUBLIC "-//W3C//DTD SVG 1.1//EN" "http://www.w3.org/Graphics/SVG/1.1/DTD/svg11.dtd"><svg width="551" height="474" viewBox="0 0 551 474" xmlns="http://www.w3.org/2000/svg" xmlns:xlink="http://www.w3.org/1999/xlink"><svg width="17" height="25.6" viewBox="-479 268.2 17 25.6" id="facebook" x="529" y="107.7"><path fill="#0082CA" d="M-467 278.2h-2.2V277c0-.6.5-.9.9-.9h1.2v-2.9h-2.3c-2.5 0-3.2 2-3.2 3.3v1.7h-1.4v2.8h1.4v7.8h3.5V281h1.7l.4-2.8z"/></svg><svg width="19" height="30" viewBox="-480 266 19 30" id="facebook_alt" x="510" y="107.7"><path fill="#FFF" d="M-466 277.4h-2.8v-1.5c0-.8.7-1.2 1.1-1.2h1.6V271h-3c-3.2 0-4.1 2.6-4.1 4.2v2.2h-1.8v3.6h1.8v10h4.5v-10h2.2l.5-3.6z"/></svg><svg width="49" height="35" viewBox="-291 379 49 35" id="flag_chn" x="409" y="317.29999999999995"><path fill="#E42F29" d="M-286 384h39v25h-39z"/><path fill="#F8EA0C" d="M-274 386.1l-.1.7.8.3-.8.2v.8l-.4-.7-.8.3.5-.6-.4-.7.7.3M-274 394.1l-.1.7.8.3-.8.2v.8l-.4-.7-.8.3.5-.6-.4-.7.7.3M-272.6 388.4v.8l-.7.3.7.2v.8l.5-.7.7.2-.5-.6.5-.6-.8.2M-272.2 391.6l.3.8h.7l-.6.4.2.8-.6-.5-.6.5.2-.8-.6-.4h.8M-280.1 387.2l.7 2.3h2.5l-2 1.4.7 2.3-1.9-1.4-2 1.4.8-2.3-2-1.4h2.4"/></svg><svg width="49" height="35" viewBox="455.5 262.5 49 35" id="flag_col" y="354.4"><path fill="#E42F29" d="M460.5 286.5h39v6h-39z"/><path fill="#1382C5" d="M460.5 280.5h39v6h-39z"/><path fill="#F8EA0C" d="M460.5 267.5h39v13h-39z"/></svg><svg width="49" height="35" viewBox="-291 379 49 35" id="flag_crc" x="49" y="354.4"><path fill="#002B7F" d="M-286 384h39v4.2h-39z"/><path fill="#FFF" d="M-286 388.2h39v4.2h-39zM-286 400.7h39v4.2h-39z"/><path fill="#002B7F" d="M-286 404.8h39v4.2h-39z"/><path fill="#CE1126" d="M-286 392.3h39v8.3h-39z"/></svg><svg width="49" height="35" viewBox="-291 379 49 35" id="flag_cub" x="98" y="354.4"><path fill="#FAD910" d="M-858 1168.7h39v8.3h-39z"/><path fill="#E42F29" d="M-858 1160.3h39v8.3h-39z"/><path d="M-858 1152h39v8.3h-39z"/><path fill="#002A8F" d="M-286 384h39v5h-39zM-286 404h39v5h-39z"/><path fill="#FFF" d="M-286 389h39v5h-39z"/><path fill="#002A8F" d="M-286 394h39v5h-39z"/><path fill="#FFF" d="M-286 399h39v5h-39z"/><path fill="#CF142B" d="M-286 409l20.5-12.5L-286 384"/><path fill="#FFF" d="M-279.2 393.1l.8 2.4h2.6l-2.1 1.5.8 2.4-2.1-1.4-2 1.4.8-2.4-2.1-1.5h2.5"/></svg><svg width="49" height="35" viewBox="455.5 262.5 49 35" id="flag_ger" x="66" y="317.29999999999995"><path fill="#FAD910" d="M460.5 284.2h39v8.3h-39z"/><path fill="#E42F29" d="M460.5 275.8h39v8.3h-39z"/><path d="M460.5 267.5h39v8.3h-39z"/></svg><svg width="49" height="35" viewBox="-291 379 49 35" id="flag_hai" x="115" y="317.29999999999995"><path fill="#D21034" d="M-286 396.5h39V409h-39z"/><path fill="#00209F" d="M-286 384h39v12.5h-39z"/></svg><svg width="49" height="35" viewBox="-291 379 49 35" id="flag_hon" x="164" y="317.29999999999995"><g fill="#0073CF"><path d="M-286 384h39v8.3h-39zM-286 400.7h39v8.3h-39zM-273.5 397.2l.3.9h.9l-.7.5.3.9-.8-.5-.8.5.3-.9-.7-.5h.9M-273.5 393l.3.9h.9l-.7.5.3.9-.8-.5-.8.5.3-.9-.7-.5h.9M-259.5 397.2l.3.9h.9l-.7.5.3.9-.8-.5-.8.5.3-.9-.7-.5h.9M-266.5 395.1l.3.9h.9l-.7.5.3.9-.8-.5-.8.5.3-.9-.7-.5h.9M-259.5 393l.3.9h.9l-.7.5.3.9-.8-.5-.8.5.3-.9-.7-.5h.9"/></g></svg><svg width="49" height="35" viewBox="-291 379 49 35" id="flag_jam" x="213" y="317.29999999999995"><path d="M-286 384l19.5 12.5L-286 409M-247 384l-19.5 12.5L-247 409"/><path fill="#009B3A" d="M-266.5 396.5L-247 384h-39M-266.5 396.5L-286 409h39"/><path fill="#FED100" d="M-247 385.8V384h-2.8l-16.7 10.7-16.7-10.7h-2.8v1.8l16.7 10.7-16.7 10.7v1.8h2.8l16.7-10.7 16.7 10.7h2.8v-1.8l-16.7-10.7"/></svg><svg width="49" height="35" viewBox="-291 379 49 35" id="flag_jpn" x="262" y="317.29999999999995"><path fill="#BC002D" d="M-266.5 389.2c-4 0-7.3 3.3-7.3 7.3s3.3 7.3 7.3 7.3 7.3-3.3 7.3-7.3-3.3-7.3-7.3-7.3z"/></svg><svg width="49" height="35" viewBox="-283 403.89 49 35" id="flag_mex" x="311" y="317.29999999999995"><path fill="#D21034" d="M-278 415.14h39v12.5h-39z"/><path fill="#00209F" d="M-278 415.14h39v12.5h-39z"/><path fill="#FFF" d="M-265 408.89h13v25h-13z"/><path fill="#006847" d="M-278 408.89h13v25h-13z"/><path fill="#CE1126" d="M-252 408.89h13v25h-13z"/><g><path fill="#894D49" d="M-260.7 417.24h3.3s1.2 0 1.2 1.2v2.2l1.8 1.3-1.1.4.3 1-1-.1.1 1.1-1-.5-.1 1.1-.9-.7-.3 1.1-.7-.8-.6 1-.6-.9v-3.8l.8-1.4-1.2-2.2z"/><path fill="#F5D560" d="M-260.3 420.84l-1.6-1.9c.6-.5 1.4.1 1.4.1s-.1-.2-.3-.4c-.3-.3-.6-.4-1-.4-.3 0-.8.6-.8.6v-.9c0-.6.9-.6.9-.6h1l1.2 2.1-.8 1.4z"/></g></svg><svg width="49" height="35" viewBox="-291 379 49 35" id="flag_pan" x="360" y="317.29999999999995"><path fill="#005293" d="M-286 396.5h19.5V409H-286z"/><path fill="#D21034" d="M-266.5 384h19.5v12.5h-19.5z"/><path fill="#005293" d="M-276.2 387.2l.7 2.3h2.4l-1.9 1.5.7 2.3-1.9-1.5-2 1.5.7-2.3-1.9-1.5h2.4"/><path fill="#D21034" d="M-256.8 399.7l.8 2.3h2.4l-1.9 1.5.7 2.3-2-1.5-1.9 1.5.7-2.3-1.9-1.5h2.4"/></svg><svg width="49" height="35" viewBox="-291 379 49 35" id="flag_per" x="147" y="354.4"><g fill="#D91023"><path d="M-286 384h13v25h-13zM-260 384h13v25h-13z"/></g></svg><svg width="49" height="35" viewBox="455.5 262.5 49 35" id="flag_usa" x="458" y="317.29999999999995"><path fill="#E42F29" d="M477.5 267.5h22v5h-22z"/><path fill="#FFF" d="M477.5 272.5h22v5h-22z"/><path fill="#E42F29" d="M477.5 277.5h22v5h-22zM460.5 287.5h39v5h-39z"/><path fill="#FFF" d="M460.5 282.5h39v5h-39z"/><path fill="#1382C5" d="M460.5 267.5h17v15h-17z"/></svg><svg width="41.5" height="40" viewBox="-5 -5 41.5 40" id="icon_ball" y="433.59999999999997"><path fill="#E8E8E8" d="M16.5 30c8.3 0 15-6.7 15-15s-6.7-15-15-15l-1.1 1.1v28.5l1.1.4"/><path fill="#FFF" d="M16.5 0c-8.3 0-15 6.7-15 15s6.7 15 15 15"/><path fill="#111" d="M4.2 6.4L5 8.1h6.8l2-6.2L12.2.6c-3.2 1-6 3.1-8 5.8M1.6 14.6v.4c0 3.2 1 6.2 2.8 8.7h2.4l2-6.2-5.5-4-1.7 1.1zM19.9 10.3H13.2l-2 6.3 5.3 4 5.4-4M28.8 6.4L28 8.1h-6.8l-2-6.2L20.8.6c3.3 1 6.1 3.1 8 5.8M31.5 14.6v.4c0 3.2-1 6.2-2.8 8.7h-2.4l-2-6.2 5.5-4 1.7 1.1zM21.9 27.2l-5.4-4-5.4 4 .8 2.1c1.4.5 3 .7 4.6.7 1.6 0 3.1-.3 4.6-.7l.8-2.1z"/></svg><svg width="41" height="41" viewBox="459.5 259.5 41 41" id="icon_diamond" x="510"><path fill="#101010" d="M480 295.5L464.5 280l15.5-15.5 15.5 15.5-15.5 15.5zM465.8 280l14.2 14.2 14.2-14.2-14.2-14.2-14.2 14.2z"/></svg><svg width="34" height="34" viewBox="-5 -5 34 34" id="icon_info" x="510" y="41"><path fill="#0082CA" d="M12 24C5.4 24 0 18.6 0 12S5.4 0 12 0s12 5.4 12 12-5.4 12-12 12zm0-22C6.5 2 2 6.5 2 12s4.5 10 10 10 10-4.5 10-10S17.5 2 12 2z"/><path fill="#0082CA" d="M11 18c-.4 0-.7-.2-1-.5-.5-.7-.1-1.7 1-4.4.2-.4.4-.9.6-1.3-.4.3-1 .3-1.4-.1-.4-.4-.4-1 0-1.4.2-.1 1.4-1.3 2.8-1.3.4 0 .7.2 1 .5.5.7.1 1.7-1 4.4-.2.4-.4.9-.6 1.3.4-.3 1-.3 1.4.1.4.4.4 1 0 1.4-.2.1-1.4 1.3-2.8 1.3zM15 6.5c0 .8-.7 1.5-1.5 1.5S12 7.3 12 6.5 12.7 5 13.5 5s1.5.7 1.5 1.5"/></svg><svg width="34" height="44.2" viewBox="-5 -5 34 44.2" id="icon_shield" y="389.4"><path fill="#1382C5" d="M12 0S7.2 2.4 0 3.4v12.7h24V3.4C16.8 2.4 12 0 12 0z"/><path fill="#FFF" d="M24 20.4V16H0v4.4s-.6 9.4 12 13.8c12.6-4.4 12-13.8 12-13.8z"/><path fill="#E42F29" d="M9.6 33.2c.7.3 1.5.7 2.4 1 .9-.3 1.7-.6 2.4-1V16.1H9.6v17.1zM4.8 30.2V16.1H0V21c0 1.3.6 5.5 4.8 9.2zM19.2 30.2V16.1H24V21c-.1 1.3-.6 5.5-4.8 9.2z"/><path fill="#FFF" d="M12 3.8l1.5 3 3.3.5-2.4 2.3.6 3.4-3-1.6L9 13l.6-3.4-2.4-2.3 3.3-.5"/></svg><svg width="44" height="35.4" viewBox="458 262.3 44 35.4" id="icon_stadium" x="34" y="389.4"><g fill="#101010"><path d="M463 279.3l2.2 7.9c0 .1 0 .1.1.2.6 1.7 4.4 3 9.5 3.6-.3-1.3-.6-2.9-.6-3.3-.1-.6.6-1.4 1-1.9s.7-1 1.3-1h7.4s.9.5 1.3 1 1.1 1.3 1 1.9c-.1.3-.4 2-.6 3.3 5.1-.6 8.9-1.9 9.5-3.6 0-.1 0-.1.1-.2l2.2-7.9c-2.9 1.9-9.4 3.2-17 3.2s-14.5-1.3-17.4-3.2z"/><path d="M482.8 288.5h-5.6c-.5 0-.9.3-.9.8l.5 2.5c0 .5.4.8.9.8h4.6c.5 0 .9-.4.9-.8l.5-2.5c0-.4-.4-.8-.9-.8zM480 278.4c-3.6 0-6.9.5-9.3 1.2 2.7.4 5.9.7 9.3.7 3.4 0 6.6-.3 9.3-.7-2.4-.7-5.7-1.2-9.3-1.2z"/><path d="M494 278.5c-2.6-1.6-7.8-2.6-14-2.6s-11.4 1.1-14 2.6c.9.3 1.9.6 3.1.8 2.8-1.2 6.9-1.8 10.9-1.8s8.1.6 10.9 1.8c1.2-.2 2.2-.5 3.1-.8z"/><path d="M465.1 278.2c2.8-2 8.9-3.1 14.9-3.1s12.1 1.1 14.9 3.1c1.3-.6 2.1-1.3 2.1-2 0-.8-.9-1.5-2.5-2.2v-1.9l1.2.4c.3.1.4-.1.5-.4l.2-1.5c0-.3-.3-.5-.6-.6l-3.2-1.1c-.3-.1-.6.1-.6.4l.2 1.5c0 .3.1.5.5.6l1 .4v2c-3-1-7.7-1.7-13.2-1.7V270h1c.3 0 .6-.3.6-.6l.3-1.6c0-.3-.3-.5-.6-.5h-3.6c-.3 0-.6.2-.6.5l.3 1.6c0 .3.3.6.6.6h1v2.1c-5.4 0-10.2.7-13.2 1.7v-2l1-.4c.3-.1.4-.3.5-.6l.2-1.5c0-.3-.3-.5-.6-.4l-3.2 1.1c-.3.1-.6.3-.6.6l.2 1.5c.1.3.1.4.5.4l1.2-.4v1.9c-1.6.6-2.5 1.4-2.5 2.2 0 .7.8 1.4 2.1 2z"/></g></svg><svg width="30" height="32.7" viewBox="465 263.6 30 32.7" id="icon_stopwatch" x="510" y="75"><g fill="#101010"><path d="M487.8 275.1l.5-.5c.5-.5.5-1.4 0-1.9s-1.4-.5-1.9 0l-.5.5c-1.4-1-3.1-1.7-4.9-1.9v-1.1h1.8c.5 0 .8-.4.8-.8 0-.5-.4-.8-.8-.8h-5.7c-.5 0-.8.4-.8.8 0 .5.4.8.8.8h1.8v1.1c-5 .5-9 4.8-9 9.9 0 5.5 4.5 10 10 10s10-4.5 10-10c.1-2.2-.7-4.3-2.1-6.1zm-7.8 14.8c-4.7 0-8.6-3.8-8.6-8.6s3.8-8.6 8.6-8.6 8.6 3.8 8.6 8.6c-.1 4.8-3.9 8.6-8.6 8.6z"/><path d="M480 275.5v5.8l-4.4 3.8c1.1 1.3 2.7 2 4.4 2 3.2 0 5.8-2.6 5.8-5.8 0-3.2-2.6-5.8-5.8-5.8z"/></g></svg><svg width="66.3" height="27.3" viewBox="-5 -5 66.3 27.3" id="logo_nji" x="158" y="273.4"><path fill="#99A4AE" d="M26.9 0v5.5h-.1L23.5 0h-2.4v8h1.7V2.3h.1L26.3 8h2.3V0"/><defs><path id="ava" d="M0 0h56v17.3H0z"/></defs><clipPath id="avb"><use xlink:href="#ava" overflow="visible"/></clipPath><path clip-path="url(#avb)" fill="#99A4AE" d="M34.1 5.3c0 1.5-.4 2.9-2.5 2.9-1.3 0-2.2-.6-2.4-1.9l1.6-.4c0 .4.4.7.8.7.8 0 .8-.9.8-1.5V0h1.8v5.3zM35 0h1.8v8H35zM21.1 9.4h2.6l1.9 5.2 1.8-5.2h2.7v7.9h-1.8v-6.1l-2.1 6.1h-1.3l-2-6.1h-.1v6.1h-1.7M31.1 9.4h5.4V11h-3.7v1.5h3.5v1.6h-3.5v1.6h3.9v1.6h-5.6M37.6 9.4h2.6c2.6 0 4.7 1.1 4.7 4 0 2.6-2.1 4-4.5 4h-2.9v-8zm1.8 6.3h.9c1.6 0 2.9-.6 2.9-2.4 0-1.6-1.2-2.3-2.7-2.3h-1v4.7zM45.6 9.4h1.8v8h-1.8zM51.1 9.4h1.5l3.5 8h-2l-.7-1.7h-3.1l-.7 1.7h-1.9l3.4-8zm.7 2.3l-1 2.5h1.9l-.9-2.5z"/><path clip-path="url(#avb)" fill="#0082CA" d="M0 0h17.3v17.3H0z"/></svg><svg width="78" height="31" viewBox="-462 265.8 78 31" id="logo_nji_alt" x="80" y="273.4"><path fill="#0F0F0F" d="M-424.3 270.8v6.7h-.2l-4-6.7h-2.9v9.8h2.1v-7h.1l4.1 7h2.8v-9.8"/><defs><path id="awa" d="M-457 270.8h68v21h-68z"/></defs><clipPath id="awb"><use xlink:href="#awa" overflow="visible"/></clipPath><path clip-path="url(#awb)" fill="#0F0F0F" d="M-415.5 277.3c0 1.8-.6 3.5-3.2 3.5-1.6 0-2.7-.7-2.9-2.3l1.9-.5c0 .5.5.9 1 .9 1 0 1-1.1 1-1.8v-6.2h2.2v6.4z"/><path fill="none" d="M-457 270.8h68v21h-68z"/><path fill="#0F0F0F" d="M-414.5 270.8h2.2v9.7h-2.2z"/><defs><path id="awc" d="M-457 270.8h68v21h-68z"/></defs><clipPath id="awd"><use xlink:href="#awc" overflow="visible"/></clipPath><path clip-path="url(#awd)" fill="#0F0F0F" d="M-431.4 282.3h3.2l2.3 6.3 2.2-6.3h3.2v9.6h-2.1v-7.5l-2.6 7.5h-1.6l-2.4-7.5h-.1v7.5h-2.1"/><defs><path id="awe" d="M-457 270.8h68v21h-68z"/></defs><clipPath id="awf"><use xlink:href="#awe" overflow="visible"/></clipPath><path clip-path="url(#awf)" fill="#0F0F0F" d="M-419.2 282.3h6.5v1.9h-4.5v1.8h4.3v2h-4.3v1.9h4.8v2h-6.8"/><g><defs><path id="awg" d="M-457 270.8h68v21h-68z"/></defs><clipPath id="awh"><use xlink:href="#awg" overflow="visible"/></clipPath><path clip-path="url(#awh)" fill="#0F0F0F" d="M-411.3 282.3h3.2c3.2 0 5.7 1.3 5.7 4.9 0 3.2-2.5 4.9-5.5 4.9h-3.5v-9.7h.1zm2.1 7.6h1.1c1.9 0 3.5-.7 3.5-2.9 0-1.9-1.5-2.8-3.3-2.8h-1.2v5.7h-.1z"/></g><g><defs><path id="awi" d="M-457 270.8h68v21h-68z"/></defs><clipPath id="awj"><use xlink:href="#awi" overflow="visible"/></clipPath><path clip-path="url(#awj)" fill="#0F0F0F" d="M-401.6 282.3h2.2v9.7h-2.2z"/></g><g><defs><path id="awk" d="M-457 270.8h68v21h-68z"/></defs><clipPath id="awl"><use xlink:href="#awk" overflow="visible"/></clipPath><path clip-path="url(#awl)" fill="#0F0F0F" d="M-395 282.3h1.8l4.2 9.7h-2.4l-.8-2.1h-3.8l-.9 2.1h-2.3l4.2-9.7zm.9 2.8l-1.2 3h2.3l-1.1-3z"/></g><g><defs><path id="awm" d="M-457 270.8h68v21h-68z"/></defs><clipPath id="awn"><use xlink:href="#awm" overflow="visible"/></clipPath><path clip-path="url(#awn)" fill="#0F0F0F" d="M-457 270.8h21v21h-21z"/></g></svg><svg width="80" height="43.9" viewBox="-5 -5 80 43.9" id="logo_shultz_division" y="273.4"><path fill="#111" d="M.8 15.8H70v2.3H.8z"/><defs><path id="axa" d="M0 0h70v33.9H0z"/></defs><clipPath id="axb"><use xlink:href="#axa" overflow="visible"/></clipPath><path clip-path="url(#axb)" fill="#111" d="M8.9 24.5c1 .9 1.5 2.2 1.5 3.9 0 1.7-.5 3-1.5 3.9-1 1-2.5 1.4-4.5 1.4H.8V23.1h3.8c1.8 0 3.3.5 4.3 1.4m-1.8 6.4c.6-.6.9-1.4.9-2.4s-.3-1.8-.9-2.4c-.6-.6-1.5-.8-2.7-.8H3.1v6.5h1.5c1.1-.1 2-.4 2.5-.9M12.5 23.1h2.4v10.6h-2.4zM21.6 29.9l2.8-6.8h2.5l-4.3 10.7h-2l-4.2-10.7h2.5M28.4 23.1h2.4v10.6h-2.4zM35.7 25.3c-.2.2-.3.4-.3.7s.1.6.4.7c.3.2.9.4 1.9.6s1.8.6 2.4 1.1c.6.5.8 1.2.8 2.2s-.4 1.7-1.1 2.3c-.7.6-1.7.9-2.8.9-1.7 0-3.2-.6-4.6-1.9l1.4-1.7c1.1 1 2.2 1.5 3.2 1.5.4 0 .8-.1 1-.3.2-.2.4-.4.4-.8s-.1-.6-.4-.8c-.3-.2-.8-.4-1.6-.6-1.2-.3-2.1-.7-2.7-1.1-.6-.5-.9-1.2-.9-2.2s.4-1.8 1.1-2.3c.7-.5 1.6-.8 2.7-.8.7 0 1.4.1 2.1.4.7.2 1.3.6 1.9 1L39.5 26c-.9-.7-1.9-1-2.9-1-.3 0-.7.1-.9.3M43 23.1h2.4v10.6H43zM56.9 32.3c-1.1 1-2.4 1.6-4 1.6s-2.9-.5-4-1.6-1.6-2.4-1.6-3.9c0-1.6.5-2.9 1.6-3.9s2.4-1.6 4-1.6 2.9.5 4 1.6 1.6 2.4 1.6 3.9c0 1.6-.5 2.9-1.6 3.9m-.8-3.9c0-.9-.3-1.8-.9-2.4-.6-.7-1.4-1-2.2-1-.9 0-1.6.3-2.2 1-.6.7-.9 1.5-.9 2.4 0 .9.3 1.8.9 2.4.6.7 1.4 1 2.2 1 .9 0 1.6-.3 2.2-1 .6-.6.9-1.5.9-2.4M67.6 23.1H70v10.7h-2.4l-5-6.7v6.7h-2.4V23.1h2.2l5.2 6.9"/><path clip-path="url(#axb)" fill="#0082CA" d="M59.3.2H70v10.7H59.3z"/><path clip-path="url(#axb)" d="M0 9.3l1.2-1.7C2 8.4 3.1 9 4.6 9c1.2 0 1.9-.6 1.9-1.2C6.5 5.9.4 7.2.4 3.2.4 1.4 1.9 0 4.4 0c1.7 0 3.1.5 4.2 1.5L7.3 3.1C6.4 2.3 5.3 2 4.2 2c-1 0-1.5.4-1.5 1.1 0 1.7 6.1.6 6.1 4.5 0 1.9-1.4 3.4-4.3 3.4-2 0-3.5-.7-4.5-1.7M17.6 10.8V6.3h-5v4.5h-2.3V.2h2.3v4.1h5V.2h2.3v10.6M22 6.6V.2h2.3v6.3c0 1.5.8 2.5 2.5 2.5 1.6 0 2.5-1 2.5-2.5V.2h2.3v6.4c0 2.7-1.6 4.5-4.8 4.5S22 9.2 22 6.6M33.7 10.8V.2H36v8.6h4.5v2M42.9 10.8V2.2h-3.1v-2h8.5v2h-3.1v8.6M49.4 10.8V9l5-6.8h-5v-2h8V2l-5.1 6.8h5.2v2"/></svg><svg width="66" height="37.1" viewBox="-442 262.5 66 37.1" id="logo_shultz_division_alt" y="317.29999999999995"><path fill="#0F0F0F" d="M-436.4 280.1h55.4v1.8h-55.4z"/><defs><path id="aya" d="M-437 267.5h56v27.1h-56z"/></defs><clipPath id="ayb"><use xlink:href="#aya" overflow="visible"/></clipPath><path clip-path="url(#ayb)" fill="#111" d="M-429.9 287.1c.8.7 1.2 1.8 1.2 3.1 0 1.4-.4 2.4-1.2 3.1-.8.8-2 1.1-3.6 1.1h-2.9V286h3c1.5 0 2.7.4 3.5 1.1m-1.4 5.1c.5-.5.7-1.1.7-1.9 0-.8-.2-1.4-.7-1.9-.5-.5-1.2-.6-2.2-.6h-1v5.2h1.2c.9-.2 1.6-.4 2-.8"/><defs><path id="ayc" d="M-437 267.5h56v27.1h-56z"/></defs><clipPath id="ayd"><use xlink:href="#ayc" overflow="visible"/></clipPath><path clip-path="url(#ayd)" fill="#111" d="M-427 286h1.9v8.5h-1.9z"/><defs><path id="aye" d="M-437 267.5h56v27.1h-56z"/></defs><clipPath id="ayf"><use xlink:href="#aye" overflow="visible"/></clipPath><path clip-path="url(#ayf)" fill="#111" d="M-419.7 291.4l2.2-5.4h2l-3.4 8.5h-1.6l-3.4-8.5h2"/><defs><path id="ayg" d="M-437 267.5h56v27.1h-56z"/></defs><clipPath id="ayh"><use xlink:href="#ayg" overflow="visible"/></clipPath><path clip-path="url(#ayh)" fill="#111" d="M-414.3 286h1.9v8.5h-1.9z"/><defs><path id="ayi" d="M-437 267.5h56v27.1h-56z"/></defs><clipPath id="ayj"><use xlink:href="#ayi" overflow="visible"/></clipPath><path clip-path="url(#ayj)" fill="#111" d="M-408.4 287.7c-.2.2-.2.3-.2.6 0 .2.1.5.3.6.2.2.7.3 1.5.5s1.4.5 1.9.9.6 1 .6 1.8-.3 1.4-.9 1.8c-.6.5-1.4.7-2.2.7-1.4 0-2.6-.5-3.7-1.5l1.1-1.4c.9.8 1.8 1.2 2.6 1.2.3 0 .6-.1.8-.2.2-.2.3-.3.3-.6s-.1-.5-.3-.6c-.2-.2-.6-.3-1.3-.5-1-.2-1.7-.6-2.2-.9-.5-.4-.7-1-.7-1.8s.3-1.4.9-1.8 1.3-.6 2.2-.6c.6 0 1.1.1 1.7.3.6.2 1 .5 1.5.8l-.9 1.4c-.7-.6-1.5-.8-2.3-.8-.3-.1-.6 0-.7.1"/><g><defs><path id="ayk" d="M-437 267.5h56v27.1h-56z"/></defs><clipPath id="ayl"><use xlink:href="#ayk" overflow="visible"/></clipPath><path clip-path="url(#ayl)" fill="#111" d="M-402.6 286h1.9v8.5h-1.9z"/></g><g><defs><path id="aym" d="M-437 267.5h56v27.1h-56z"/></defs><clipPath id="ayn"><use xlink:href="#aym" overflow="visible"/></clipPath><path clip-path="url(#ayn)" fill="#111" d="M-391.5 293.3c-.9.8-1.9 1.3-3.2 1.3s-2.3-.4-3.2-1.3-1.3-1.9-1.3-3.1c0-1.3.4-2.3 1.3-3.1.9-.8 1.9-1.3 3.2-1.3s2.3.4 3.2 1.3c.9.9 1.3 1.9 1.3 3.1 0 1.3-.4 2.3-1.3 3.1m-.6-3.1c0-.7-.2-1.4-.7-1.9-.5-.6-1.1-.8-1.8-.8s-1.3.2-1.8.8c-.5.6-.7 1.2-.7 1.9s.2 1.4.7 1.9c.5.6 1.1.8 1.8.8s1.3-.2 1.8-.8c.4-.5.7-1.2.7-1.9"/></g><g><defs><path id="ayo" d="M-437 267.5h56v27.1h-56z"/></defs><clipPath id="ayp"><use xlink:href="#ayo" overflow="visible"/></clipPath><path clip-path="url(#ayp)" fill="#111" d="M-382.9 286h1.9v8.5h-1.9l-4-5.3v5.3h-1.9V286h1.7l4.2 5.5"/></g><g><defs><path id="ayq" d="M-437 267.5h56v27.1h-56z"/></defs><clipPath id="ayr"><use xlink:href="#ayq" overflow="visible"/></clipPath><path clip-path="url(#ayr)" fill="#0F0F0F" d="M-389.6 267.6h8.6v8.6h-8.6z"/></g><g><defs><path id="ays" d="M-437 267.5h56v27.1h-56z"/></defs><clipPath id="ayt"><use xlink:href="#ays" overflow="visible"/></clipPath><path clip-path="url(#ayt)" d="M-437 274.9l1-1.4c.6.6 1.5 1.1 2.7 1.1 1 0 1.5-.5 1.5-1 0-1.5-4.9-.5-4.9-3.7 0-1.4 1.2-2.6 3.2-2.6 1.4 0 2.5.4 3.4 1.2l-1 1.3c-.7-.6-1.6-.9-2.5-.9-.8 0-1.2.3-1.2.9 0 1.4 4.9.5 4.9 3.6 0 1.5-1.1 2.7-3.4 2.7-1.7.2-2.9-.4-3.7-1.2"/></g><g><defs><path id="ayu" d="M-437 267.5h56v27.1h-56z"/></defs><clipPath id="ayv"><use xlink:href="#ayu" overflow="visible"/></clipPath><path clip-path="url(#ayv)" d="M-422.9 276.1v-3.6h-4v3.6h-1.9v-8.5h1.9v3.3h4v-3.3h1.8v8.5"/></g><g><defs><path id="ayw" d="M-437 267.5h56v27.1h-56z"/></defs><clipPath id="ayx"><use xlink:href="#ayw" overflow="visible"/></clipPath><path clip-path="url(#ayx)" d="M-419.4 272.8v-5.1h1.8v5c0 1.2.6 2 2 2 1.3 0 2-.8 2-2v-5h1.8v5.1c0 2.2-1.3 3.6-3.8 3.6s-3.8-1.6-3.8-3.6"/></g><g><defs><path id="ayy" d="M-437 267.5h56v27.1h-56z"/></defs><clipPath id="ayz"><use xlink:href="#ayy" overflow="visible"/></clipPath><path clip-path="url(#ayz)" d="M-410 276.1v-8.5h1.8v6.9h3.6v1.6"/></g><g><defs><path id="ayA" d="M-437 267.5h56v27.1h-56z"/></defs><clipPath id="ayB"><use xlink:href="#ayA" overflow="visible"/></clipPath><path clip-path="url(#ayB)" d="M-402.7 276.1v-6.9h-2.5v-1.6h6.8v1.6h-2.4v6.9"/></g><g><defs><path id="ayC" d="M-437 267.5h56v27.1h-56z"/></defs><clipPath id="ayD"><use xlink:href="#ayC" overflow="visible"/></clipPath><path clip-path="url(#ayD)" d="M-397.5 276.1v-1.4l4-5.5h-4v-1.6h6.4v1.5l-4.1 5.4h4.2v1.6"/></g></svg><svg id="old_glory" viewBox="63.2 259.8 510 273.4" width="510" height="273.4"><style>.st0{fill:#88271f}.st1{fill:#f2ead5}.st2{fill:#1d2033}</style><path class="st0" d="M68.2 264.8h500v263.4h-500z"/><path class="st1" d="M68.2 487.7h500V508h-500zM68.2 447.2h500v20.3h-500zM68.2 406.7h500V427h-500zM68.2 366.1h500v20.3h-500zM68.2 325.6h500v20.3h-500zM68.2 285.1h500v20.3h-500z"/><path class="st2" d="M68.2 264.8h200.2v142H68.2z"/><path class="st1" d="M104.5 288.3l1.6 4.9h5.1l-4 3.1 1.5 4.8-4.2-3-4.1 3 1.6-4.8-4.2-3.1h5.2zM104.5 315.7l1.6 4.9h5.1l-4 3 1.5 4.9-4.2-3-4.1 3 1.6-4.9-4.2-3h5.2zM104.5 343l1.6 4.9h5.1l-4 3 1.5 4.9-4.2-2.9-4.1 2.9 1.6-4.9-4.2-3h5.2zM104.5 370.4l1.6 4.9h5.1l-4 3 1.5 4.9-4.2-3-4.1 3 1.6-4.9-4.2-3h5.2zM136.5 288.3l1.6 4.9h5.1l-4.2 3.1 1.6 4.8-4.1-3-4.2 3 1.6-4.8-4.2-3.1h5.2zM136.5 315.7l1.6 4.9h5.1l-4.2 3 1.6 4.9-4.1-3-4.2 3 1.6-4.9-4.2-3h5.2zM136.5 343l1.6 4.9h5.1l-4.2 3 1.6 4.9-4.1-2.9-4.2 2.9 1.6-4.9-4.2-3h5.2zM136.5 370.4l1.6 4.9h5.1l-4.2 3 1.6 4.9-4.1-3-4.2 3 1.6-4.9-4.2-3h5.2zM168.3 288.3l1.6 4.9h5.2l-4.2 3.1 1.6 4.8-4.2-3-4.1 3 1.6-4.8-4.2-3.1h5.1zM168.3 315.7l1.6 4.9h5.2l-4.2 3 1.6 4.9-4.2-3-4.1 3 1.6-4.9-4.2-3h5.1zM168.3 343l1.6 4.9h5.2l-4.2 3 1.6 4.9-4.2-2.9-4.1 2.9 1.6-4.9-4.2-3h5.1zM168.3 370.4l1.6 4.9h5.2l-4.2 3 1.6 4.9-4.2-3-4.1 3 1.6-4.9-4.2-3h5.1z"/><g><path class="st1" d="M200.2 288.3l1.6 4.9h5.1l-4.1 3.1 1.6 4.8-4.2-3-4.2 3 1.6-4.8-4.1-3.1h5.1zM200.2 315.7l1.6 4.9h5.1l-4.1 3 1.6 4.9-4.2-3-4.2 3 1.6-4.9-4.1-3h5.1zM200.2 343l1.6 4.9h5.1l-4.1 3 1.6 4.9-4.2-2.9-4.2 2.9 1.6-4.9-4.1-3h5.1zM200.2 370.4l1.6 4.9h5.1l-4.1 3 1.6 4.9-4.2-3-4.2 3 1.6-4.9-4.1-3h5.1z"/></g><g><path class="st1" d="M232.1 288.3l1.6 4.9h5.2l-4.2 3.1 1.6 4.8-4.2-3-4.1 3 1.5-4.8-4.1-3.1h5.1zM232.1 315.7l1.6 4.9h5.2l-4.2 3 1.6 4.9-4.2-3-4.1 3 1.5-4.9-4.1-3h5.1zM232.1 343l1.6 4.9h5.2l-4.2 3 1.6 4.9-4.2-2.9-4.1 2.9 1.5-4.9-4.1-3h5.1zM232.1 370.4l1.6 4.9h5.2l-4.2 3 1.6 4.9-4.2-3-4.1 3 1.5-4.9-4.1-3h5.1z"/></g><g><path class="st1" d="M88.6 274.6l1.6 4.9h5.1l-4.2 3.1 1.6 4.9-4.1-3.1-4.2 3.1 1.6-4.9-4.1-3.1H87zM88.6 302l1.6 4.9h5.1l-4.2 3.1 1.6 4.8-4.1-3-4.2 3L86 310l-4.1-3.1H87zM88.6 329.4l1.6 4.9h5.1l-4.2 3 1.6 4.8-4.1-2.9-4.2 2.9 1.6-4.8-4.1-3H87zM88.6 356.7l1.6 4.9h5.1l-4.2 3 1.6 4.9-4.1-3-4.2 3 1.6-4.9-4.1-3H87zM88.6 384.1l1.6 4.9h5.1l-4.2 3 1.6 4.9-4.1-3-4.2 3L86 392l-4.1-3H87z"/></g><g><path class="st1" d="M120.5 274.6l1.6 4.9h5.2l-4.2 3.1 1.6 4.9-4.2-3.1-4.1 3.1 1.5-4.9-4.1-3.1h5.1zM120.5 301.9l1.6 4.9h5.2l-4.2 3 1.6 4.9-4.2-3-4.1 3 1.5-4.9-4.1-3h5.1zM120.5 329.6l1.6 4.9h5.2l-4.2 3 1.6 4.9-4.2-3.1-4.1 3.1 1.5-4.9-4.1-3h5.1zM120.5 357l1.6 4.9h5.2l-4.2 3.1 1.6 4.8-4.2-3-4.1 3 1.5-4.8-4.1-3.1h5.1zM120.5 384.1l1.6 4.9h5.2l-4.2 3 1.6 4.9-4.2-3-4.1 3 1.5-4.9-4.1-3h5.1z"/></g><g><path class="st1" d="M152.4 274.6l1.6 4.9h5.1l-4.1 3.1 1.6 4.9-4.2-3.1-4.2 3.1 1.6-4.9-4.1-3.1h5.1zM152.4 301.9l1.6 4.9h5.1l-4.1 3 1.6 4.9-4.2-3-4.2 3 1.6-4.9-4.1-3h5.1zM152.4 329.6l1.6 4.9h5.1l-4.1 3 1.6 4.9-4.2-3.1-4.2 3.1 1.6-4.9-4.1-3h5.1zM152.4 357l1.6 4.9h5.1L155 365l1.6 4.8-4.2-3-4.2 3 1.6-4.8-4.1-3.1h5.1zM152.4 384.1l1.6 4.9h5.1l-4.1 3 1.6 4.9-4.2-3-4.2 3 1.6-4.9-4.1-3h5.1z"/></g><g><path class="st1" d="M184.3 274.6l1.6 4.9h5.1l-4.2 3.1 1.6 4.9-4.1-3.1-4.2 3.1 1.6-4.9-4.2-3.1h5.2zM184.3 301.9l1.6 4.9h5.1l-4.2 3 1.6 4.9-4.1-3-4.2 3 1.6-4.9-4.2-3h5.2zM184.3 329.6l1.6 4.9h5.1l-4.2 3 1.6 4.9-4.1-3.1-4.2 3.1 1.6-4.9-4.2-3h5.2zM184.3 357l1.6 4.9h5.1l-4.2 3.1 1.6 4.8-4.1-3-4.2 3 1.6-4.8-4.2-3.1h5.2zM184.3 384.1l1.6 4.9h5.1l-4.2 3 1.6 4.9-4.1-3-4.2 3 1.6-4.9-4.2-3h5.2z"/></g><g><path class="st1" d="M216.1 274.6l1.6 4.9h5.2l-4.1 3.1 1.5 4.9-4.2-3.1-4.1 3.1 1.6-4.9-4.2-3.1h5.2zM216.1 301.9l1.6 4.9h5.2l-4.1 3 1.5 4.9-4.2-3-4.1 3 1.6-4.9-4.2-3h5.2zM216.1 329.6l1.6 4.9h5.2l-4.1 3 1.5 4.9-4.2-3.1-4.1 3.1 1.6-4.9-4.2-3h5.2zM216.1 357l1.6 4.9h5.2l-4.1 3.1 1.5 4.8-4.2-3-4.1 3 1.6-4.8-4.2-3.1h5.2zM216.1 384.1l1.6 4.9h5.2l-4.1 3 1.5 4.9-4.2-3-4.1 3 1.6-4.9-4.2-3h5.2z"/></g><g><path class="st1" d="M248.1 274.6l1.6 4.9h5.1l-4.2 3.1 1.6 4.9-4.1-3.1-4.2 3.1 1.6-4.9-4.2-3.1h5.2zM248.1 301.9l1.6 4.9h5.1l-4.2 3 1.6 4.9-4.1-3-4.2 3 1.6-4.9-4.2-3h5.2zM248.1 329.6l1.6 4.9h5.1l-4.2 3 1.6 4.9-4.1-3.1-4.2 3.1 1.6-4.9-4.2-3h5.2zM248.1 357l1.6 4.9h5.1l-4.2 3.1 1.6 4.8-4.1-3-4.2 3 1.6-4.8-4.2-3.1h5.2zM248.1 384.1l1.6 4.9h5.1l-4.2 3 1.6 4.9-4.1-3-4.2 3 1.6-4.9-4.2-3h5.2z"/></g></svg><svg width="29.3" height="25.6" viewBox="-473.6 268.2 29.3 25.6" id="twitter" x="510" y="163.79999999999998"><path fill="#0082CA" d="M-449.4 275.1c-.7.3-1.4.5-2.3.6.8-.5 1.4-1.2 1.7-2.2-.8.5-1.6.8-2.5 1-.7-.8-1.7-1.2-2.9-1.2-2.6 0-4.4 2.4-3.8 4.8-3.2-.2-6.1-1.7-8.1-4.1-1 1.7-.6 4.1 1.2 5.2-.7 0-1.2-.2-1.8-.5 0 1.8 1.2 3.5 3.1 3.9-.6.2-1.1.2-1.8.1.5 1.5 1.9 2.7 3.6 2.8-1.6 1.3-3.7 1.9-5.8 1.6 1.7 1.1 3.8 1.7 6 1.7 7.3 0 11.4-6.1 11.2-11.6 1.1-.5 1.8-1.2 2.2-2.1z"/></svg><svg width="30" height="26.1" viewBox="-474 267.9 30 26.1" id="twitter_alt" x="510" y="137.7"><path fill="#FFF" d="M-449 274.9c-.7.3-1.5.5-2.4.6.8-.5 1.5-1.3 1.8-2.3-.8.5-1.7.8-2.6 1-.7-.8-1.8-1.3-3-1.3-2.7 0-4.6 2.5-4 5-3.4-.2-6.3-1.8-8.4-4.3-1.1 1.8-.6 4.3 1.3 5.4-.7 0-1.3-.2-1.9-.5 0 1.9 1.3 3.7 3.3 4.1-.6.2-1.2.2-1.9.1.5 1.6 2 2.8 3.8 2.9-1.7 1.4-3.9 2-6 1.7 1.8 1.2 4 1.8 6.2 1.8 7.5 0 11.8-6.3 11.6-12.1 1-.5 1.7-1.2 2.2-2.1z"/></svg></svg>